<?xml version="1.0" encoding="utf-8"?>
<!-- Generator: Adobe Illustrator 19.1.1, SVG Export Plug-In . SVG Version: 6.00 Build 0)  -->
<svg version="1.1" id="Слой_1" xmlns="http://www.w3.org/2000/svg" xmlns:xlink="http://www.w3.org/1999/xlink" x="0px" y="0px"
	 viewBox="0 0 461.5 458" style="enable-background:new 0 0 461.5 458;" xml:space="preserve">
<style type="text/css">
	.st0{fill:url(#SVGID_1_);}
	.st1{fill:#365668;}
	.st2{opacity:0.41;fill:url(#SVGID_2_);}
	.st3{opacity:0.41;fill:url(#SVGID_3_);}
	.st4{fill:none;stroke:#5D5D5D;stroke-miterlimit:10;}
	.st5{opacity:0.41;fill:url(#SVGID_4_);}
	.st6{opacity:0.41;fill:url(#SVGID_5_);}
	.st7{fill:#FFFFFF;}
	.st8{fill:url(#SVGID_10_);}
	.st9{fill:url(#SVGID_13_);}
	.st10{fill:#EDEDED;}
	.st11{opacity:0.9;fill:#111214;}
	.st12{opacity:0.7;fill:#111214;}
	.st13{fill:#002F33;}
	.st14{opacity:0.5;}
	.st15{fill-rule:evenodd;clip-rule:evenodd;fill:#B79D82;}
	.st16{fill-rule:evenodd;clip-rule:evenodd;fill:#1F4448;}
	.st17{fill:#803D1E;}
	.st18{fill-rule:evenodd;clip-rule:evenodd;fill:#5B250F;}
	.st19{fill:#897960;}
	.st20{fill-rule:evenodd;clip-rule:evenodd;fill:#897960;}
	.st21{fill-rule:evenodd;clip-rule:evenodd;fill:#E0D9C1;}
	.st22{fill:#5B250F;}
	.st23{fill-rule:evenodd;clip-rule:evenodd;fill:#904822;}
	.st24{opacity:0.5;fill:#FFFFFF;}
	.st25{opacity:0.9;fill:#9E340B;}
	.st26{fill:none;}
	.st27{fill-rule:evenodd;clip-rule:evenodd;fill:#9E340B;}
	.st28{fill:none;stroke:#FFFFFF;stroke-width:2;stroke-miterlimit:10;}
	.st29{opacity:0.2;fill:none;stroke:#FFFFFF;stroke-miterlimit:10;}
	.st30{fill:#A1523A;}
	.st31{fill:none;stroke:#A1A1A1;stroke-miterlimit:10;}
	.st32{fill:none;stroke:#FFFFFF;stroke-miterlimit:10;}
	.st33{opacity:0.7;}
	.st34{opacity:0.6;fill:none;stroke:#FFFFFF;stroke-miterlimit:10;}
	.st35{fill:none;stroke:#9E340B;stroke-width:2;stroke-miterlimit:10;}
	.st36{fill:none;stroke:#9E340B;stroke-width:2;stroke-miterlimit:10;stroke-dasharray:4,4;}
	.st37{fill:#5D5D5D;}
	.st38{opacity:0.1;fill:url(#SVGID_30_);}
	.st39{fill-rule:evenodd;clip-rule:evenodd;fill:#091414;}
	.st40{opacity:0.9;}
	.st41{opacity:0.8;}
	.st42{opacity:0.41;fill:url(#SVGID_45_);}
	.st43{clip-path:url(#SVGID_47_);}
	.st44{clip-path:url(#SVGID_51_);}
	.st45{clip-path:url(#SVGID_55_);}
	.st46{clip-path:url(#SVGID_59_);}
	.st47{clip-path:url(#SVGID_63_);}
	.st48{clip-path:url(#SVGID_67_);}
	.st49{clip-path:url(#SVGID_71_);}
	.st50{clip-path:url(#SVGID_75_);}
	.st51{clip-path:url(#SVGID_79_);}
	.st52{clip-path:url(#SVGID_83_);}
	.st53{fill:url(#SVGID_86_);}
	.st54{opacity:0.1;fill:#011110;}
	.st55{fill:url(#SVGID_87_);}
	.st56{opacity:0.44;}
	.st57{fill-rule:evenodd;clip-rule:evenodd;}
	.st58{fill:url(#SVGID_94_);}
	.st59{fill:none;stroke:#FFFFFF;stroke-width:3;stroke-miterlimit:10;}
	.st60{fill:#141414;}
	.st61{fill:url(#SVGID_99_);}
	.st62{fill:#E8E4E3;}
	.st63{fill:#864D3D;}
	.st64{clip-path:url(#SVGID_107_);}
	.st65{fill:#2E495E;}
	.st66{opacity:0.41;fill:url(#SVGID_114_);}
	.st67{opacity:0.41;fill:url(#SVGID_117_);}
	.st68{opacity:0.2;fill:#FFFFFF;}
	.st69{fill-rule:evenodd;clip-rule:evenodd;fill:#FFFFFF;}
	.st70{opacity:0.95;}
	.st71{opacity:0.95;fill:#FFFFFF;}
	.st72{clip-path:url(#SVGID_133_);}
	.st73{clip-path:url(#SVGID_137_);}
	.st74{clip-path:url(#SVGID_141_);}
	.st75{clip-path:url(#SVGID_145_);}
	.st76{clip-path:url(#SVGID_149_);}
	.st77{clip-path:url(#SVGID_153_);}
	.st78{clip-path:url(#SVGID_157_);}
	.st79{clip-path:url(#SVGID_161_);}
	.st80{clip-path:url(#SVGID_165_);}
	.st81{clip-path:url(#SVGID_169_);}
	.st82{fill:url(#SVGID_172_);}
	.st83{fill:url(#SVGID_173_);}
	.st84{opacity:0.2;fill:none;stroke:#535963;stroke-miterlimit:10;}
	.st85{clip-path:url(#SVGID_207_);fill:none;}
	.st86{opacity:0.4;}
	.st87{opacity:0.3;fill:none;stroke:#FFFFFF;stroke-miterlimit:10;}
</style>
<g>
	<g>
		<path class="st57" d="M232.8,60.8c0.8,0,1.7,0,2.6,0.4c0.7,0.3,1.2,0.7,1.8,1.2c1.1,0.9,2.2,1.9,3,2.8c1.9,1.9,4.4,3.7,6.8,4.9
			c2.7,1.3,5.7,2.1,9.3,2.4c5.6,0.4,10.1-1.6,13.6-3.8c1.2-0.8,2.5-1.6,3.8-2c1.7-0.5,3.8-0.1,4.9,0.6c1.2,0.7,2,2,2.7,3.1
			c1.5,2.3,2.9,4.9,4.7,6.9c1.8,2,4,3.7,6.6,5.1c2.8,1.5,5.5,2.5,8.9,2.8c3.7,0.3,7-0.5,10.2-1.4c1.7-0.5,3.4-0.8,4.9-0.3
			c1.5,0.5,2.6,1.2,3.4,2.4c0.8,1.2,1.2,2.6,1.6,4.2c0.9,2.9,1.9,6,3.3,8.4c2.1,3.5,5.2,6.6,8.8,8.7c2.2,1.3,5.4,2.5,8.8,2.8
			c1.7,0.2,3.7,0.2,5.6,0.3c2,0.1,3.3,0.4,4.4,1.4c1.1,0.9,2,2,2.4,3.5c0.2,0.8,0.2,1.7,0.2,2.7c0,0.9,0.1,1.8,0.1,2.8
			c0,7.5,2.7,12.9,6.3,17c2.8,3.2,6.3,5.3,10.8,6.8c1.5,0.5,3,0.8,4.4,1.4c1.3,0.6,2.3,1.4,3,2.8c0.6,1.3,1.4,2.6,1.2,4.5
			c-0.1,1.7-0.6,3.3-0.9,4.9c-0.4,1.6-0.6,3.3-0.7,5.1c-0.2,3.7,0.4,7.1,1.6,10c2.3,5.7,5.6,9.4,10.9,12.5c1.4,0.8,2.6,1.5,3.6,2.2
			c1.2,0.9,1.8,1.8,2.2,3.6c0.4,1.7,0,3-0.7,4.7c-0.6,1.3-1.3,2.5-2,3.8c-1.4,2.6-2.5,5.4-2.8,8.9c-0.4,3.6,0,7.3,0.9,10.2
			c1.4,4.6,3.9,7.5,6.9,10.6c1,1,2,1.9,2.6,3.2c0.6,1.1,1,3.4,0.5,5c-0.4,1.3-1.5,2.4-2.4,3.4c-2,2.1-4,3.9-5.5,6.2
			c-2.9,4.4-4.8,11.7-3,18.8c0.7,2.9,2.4,5.4,3.7,8c0.7,1.3,1.4,2.5,1.3,4.4c-0.1,1.7-0.4,3.1-1.6,4.2c-1,1-2.4,1.5-3.6,2.2
			c-1.2,0.7-2.5,1.4-3.7,2.2c-2.3,1.5-4.2,3.5-5.8,5.8c-1.6,2.3-2.9,5-3.7,8.1c-0.8,3.3-0.7,7.1,0.1,10.4c0.4,1.7,0.8,3.2,1.1,4.7
			c0.3,1.9-0.2,3.3-1,4.5c-0.9,1.3-1.9,1.9-3.5,2.4c-1.4,0.4-3,0.8-4.6,1.2c-3.3,0.8-5.9,1.9-8.2,3.5c-2.3,1.6-4.1,3.6-5.8,5.9
			c-1.6,2.3-2.9,4.9-3.5,8.1c-0.3,1.5-0.4,3.5-0.5,5.3c-0.1,1.9,0.1,3.7-0.7,5.1c-0.6,1.1-1.8,2.4-3,2.9c-1.3,0.6-3.3,0.5-5.3,0.4
			c-3.7-0.1-7-0.2-10.3,0.8c-2.9,0.9-5.4,2.3-7.6,4c-3.4,2.6-5.7,5.9-7.2,10.3c-0.3,0.7-0.5,1.5-0.7,2.2c-0.5,2.3-1.4,4.4-3.4,5.3
			c-1.3,0.6-3.1,0.8-4.8,0.1c-1.4-0.6-2.7-1.2-4.2-1.6c-1.6-0.4-3.3-0.6-5.2-0.5c-1.8,0.1-3.4,0.5-4.9,0.9
			c-5.8,1.9-10.1,5.5-13,10.4c-0.7,1.2-1.3,2.5-2,3.8c-0.7,1.2-1.4,2.5-2.6,3.2c-1.1,0.7-2.9,1.3-4.5,1.1c-1.5-0.2-2.7-1.1-4-1.8
			c-3.6-2-8.1-4.2-13.6-3.8c-7.2,0.5-11.8,3.3-15.9,7.4c-0.9,0.9-1.9,2-2.9,2.9c-1.1,1-2.4,1.8-4,1.8c-1.7,0-3.3-0.5-4.4-1.5
			c-1.1-0.9-2-2-2.9-2.9c-3.9-3.9-8.8-7-16.4-7c-3.8,0-6.8,0.7-9.6,2c-1.3,0.6-2.6,1.3-3.9,2c-1.3,0.7-2.5,1.5-4,1.8
			c-1.8,0.4-3.2-0.2-4.5-0.9c-1.3-0.8-2-1.9-2.7-3.1c-0.8-1.2-1.4-2.5-2.2-3.7c-2.2-3.4-5.3-6.5-9.2-8.3c-2.8-1.3-5.5-2.2-9.3-2.4
			c-3.8-0.3-6.8,0.8-10.1,1.4c-1.8,0.4-3.6,0.6-5,0c-1.1-0.5-2.6-1.6-3.2-2.6c-0.7-1.2-1-2.8-1.4-4.4c-0.4-1.5-0.9-3-1.4-4.4
			c-2.3-5.8-6.1-9.4-11.3-12c-2.5-1.3-5.4-2.2-9.1-2.5c-1.8-0.2-3.7-0.1-5.5-0.3c-1.8-0.2-3-0.8-4-1.8c-1.1-1.1-1.8-2.2-1.9-4
			c-0.1-1.8,0-3.6,0-5.6c0-3.6-0.9-6.9-2.2-9.5c-1.2-2.5-2.9-4.9-4.9-6.8c-2-2-4.1-3.6-6.8-4.8c-1.3-0.6-2.7-1.1-4.3-1.6
			c-2.1-0.7-4.6-1.3-5.8-2.9c-0.2-0.3-0.4-0.6-0.6-0.9c-0.2-0.3-0.4-0.5-0.6-0.8c-0.9-1.2-1.2-2.7-0.9-4.5c0.6-3.4,1.7-6.2,1.8-9.9
			c0-3.7-0.9-6.7-2.1-9.5c-1.2-2.8-2.8-5.2-4.6-7.1c-1.8-1.9-4.1-3.4-6.6-5c-1.2-0.8-2.5-1.5-3.5-2.4c-1.1-1-1.6-2.1-1.9-3.9
			c-0.3-1.9,0.3-3.2,1-4.5c0.8-1.4,1.4-2.4,2.1-3.7c1.4-2.7,2.4-5.5,2.6-9.1c0.1-1.9-0.1-3.7-0.3-5.5c-0.2-1.6-0.7-3.2-1.2-4.6
			c-1-2.6-2.6-5.3-4.3-7.3c-0.8-1-1.9-2-2.8-3c-1-1.1-2-2.1-2.5-3.3c-0.6-1.3-0.6-3.6,0.1-5c0.5-1.2,1.7-2.3,2.6-3.2
			c3.2-2.9,5.7-5.8,7.2-10.2c0.5-1.5,0.8-3,1-4.8c0.5-3.5,0-7.3-0.9-10.3c-1-3-2.4-5.3-3.7-8.1c-0.7-1.4-1.2-3.1-0.7-4.7
			c0.4-1.3,1.3-2.6,2.4-3.4c1.2-0.8,2.5-1.4,3.7-2.1c3.8-2,7-4.5,9.1-8.3c1.5-2.6,2.5-5.4,3-8.7c0.3-1.8,0.3-3.7,0.2-5.5
			c-0.1-1.8-0.6-3.4-0.9-4.9c-0.3-1.6-0.8-3.4-0.7-5.1c0.1-1.7,1-3,1.9-3.9c1.8-2,5.5-1.9,8.7-2.9c3.1-0.9,5.5-2.3,7.6-4.1
			c1-0.8,1.9-1.9,2.8-3c2.6-3.1,4.7-7,5.3-12.2c0.3-3.1-0.1-7.7,1.7-9.8c0.9-1,2-2,3.7-2.2c1.5-0.2,3.4,0.1,5.3,0.2
			c3.8,0.2,7.4-0.4,10-1.5c5.2-2.2,9.7-6.1,12-11.2c0.6-1.4,0.9-3,1.3-4.6c0.4-1.6,0.6-3.3,1.2-4.7c0.6-1.3,1.7-2.2,3-2.8
			c0.8-0.3,1.6-0.5,2.5-0.4c0.7,0.1,1.4,0.4,2.2,0.7c1.5,0.5,3.1,0.8,4.7,1.1c1.7,0.3,3.4,0.6,5.3,0.5c3.6-0.2,6.6-1.2,9.2-2.4
			c2.8-1.3,4.7-2.9,6.7-5c1.9-2,3.1-4.6,4.5-7.2c0.7-1.2,1.2-2.6,2.4-3.4c1.1-0.7,2.8-1.4,4.5-1c1.5,0.3,2.8,1.1,4.1,1.8
			c1.3,0.6,2.5,1.4,3.9,2c2.8,1.2,6,2,9.6,2c7.5,0,12.5-3,16.2-7c0.8-0.9,1.8-2,2.8-3c0.9-0.9,2.3-1.8,4.1-1.7
			C232.7,60.8,232.7,60.8,232.8,60.8z M232.4,70c0,4.3,0,8.2,0,12.7c0,1.5-0.5,4.2,1,4.1c0.7,0,1-0.6,1-1.5c0-2.2,0-4.2,0-7.2
			c0-2.8,0-5.4,0-8.1c0-1.6,0.1-2.9-1.1-2.8C232.1,67.3,232.4,68.4,232.4,70z M273.9,74.4c-1.3,4.7-2.6,9.4-3.9,13.9
			c-0.2,0.9-0.7,1.8-0.4,2.4c0.2,0.3,0.7,0.5,0.9,0.5c0.7,0,0.9-0.8,1.2-1.8c1.4-4.8,2.7-9.6,4-14.2c0.2-0.7,0.7-1.9,0.5-2.4
			c-0.2-0.5-0.8-0.6-1.2-0.5C274.1,72.5,274.1,73.5,273.9,74.4z M191.5,76.8c0.3,0.8,0.5,1.6,0.7,2.3c1.2,3.8,2.6,7.6,3.8,11.4
			c0.3,1,0.4,1.8,1.2,1.9c1.8,0.2,0.9-1.9,0.5-3c-1.5-4.6-2.9-9-4.3-13.4c-0.2-0.7-0.5-1.9-0.8-2.2c-0.3-0.2-0.7-0.2-0.7-0.2
			C190.4,73.8,191.2,75.7,191.5,76.8z M225,74.2c-2.4,1.1-4.5,2.3-7.4,3.2c-3.8,1.2-8.3,2-13,1.2c-1-0.2-3.8-1.3-3.7,0.5
			c0.1,1,1.7,1.1,2.8,1.3c1.3,0.2,2.5,0.4,3.7,0.5c3,0.2,5.4-0.1,7.6-0.6c3.2-0.7,6.2-2,9-3.4c0.9-0.4,2.4-0.9,2.4-1.8
			c0-0.8-0.5-1.2-1.3-1C225,74.1,225,74.1,225,74.2z M240.5,75.6c0.1,0.5,0.6,0.7,1.1,0.9c3.2,1.8,6.2,3.2,10.4,3.9
			c3.7,0.5,7.3,0.2,11-0.3c1.3-0.2,2.9-0.2,3-1.1c0.3-1.8-1.9-1-2.4-0.9c-3.4,0.6-7.3,0.8-10.9,0.4c-4.3-0.5-7.2-1.9-10.1-3.5
			c-0.5-0.3-0.9-0.7-1.5-0.5C240.7,74.5,240.4,74.9,240.5,75.6z M280.1,82.4c0,0.8,1.3,1.7,2,2.3c0.8,0.8,1.6,1.5,2.3,2
			c4.1,3.3,9.1,5,15.6,6c0.8,0.1,3.2,0.7,3.7,0.1c0.2-0.2,0.3-0.6,0.2-1.1c-0.2-0.8-1.9-0.7-3.3-0.9c-3.6-0.4-6.9-1.2-9.9-2.6
			c-2.9-1.3-5.3-3-7.4-5c-0.5-0.5-1.4-1.9-2.3-1.9c-0.1,0-0.1,0.1-0.1,0.1C280.2,81.5,280.1,81.9,280.1,82.4z M185.4,82.9
			c-0.8,0.5-1.4,1.1-2,1.6c-4.5,3.7-10,6.9-17.8,7.2c-0.7,0-1.1-0.1-1.8,0c-0.8,0.1-1,0.5-1.1,0.8c-0.4,1.5,1.6,1.2,3.1,1.2
			c4.6-0.1,7.8-1.1,10.8-2.5c3.1-1.4,5.6-3.1,8.1-5.1c0.8-0.6,2.3-1.3,2.2-2.3c-0.1-0.6-0.5-1-1.3-0.8
			C185.5,82.8,185.5,82.9,185.4,82.9z M312.6,91.2c-2.4,4.1-4.9,8.3-7.2,12.3c-0.5,0.8-1.1,1.7-0.9,2.2c0.1,0.5,0.6,0.8,1.1,0.7
			c0.7-0.1,1.2-1.2,1.5-1.8c2.5-4.3,4.8-8.3,7.3-12.5c0.4-0.6,1.2-1.5,1-2.3c-0.1-0.4-0.6-0.8-1.2-0.7
			C313.3,89.4,313,90.5,312.6,91.2z M153.2,92.6c2.5,4.2,4.8,8.3,7.2,12.4c0.4,0.7,0.8,1.7,1.6,1.8c0.5,0,1-0.3,1.1-0.8
			c0.1-0.6-0.7-1.5-1.1-2.2c-1.4-2.3-2.3-4-3.6-6.4c-1.2-2.2-2.4-4-3.7-6.2c-0.4-0.7-0.8-1.8-1.8-1.6
			C151.2,89.9,152.6,91.7,153.2,92.6z M226.2,90.3c-9.9,0.4-18.7,1.9-27,3.9c-18.8,4.7-34.8,12.6-48.4,22.3
			c-8.5,6.1-16.4,13.2-23.2,21c-4.1,4.7-8.1,9.6-11.6,14.9c-11.8,17.6-20.7,38.3-23.5,65c-1.1,10.8-0.8,23.2,0.6,33.3
			c3.6,25.6,12.9,46.2,25.2,63.2c9.9,13.7,21.7,25.4,35.9,34.9c17.6,11.8,38.3,20.7,64.9,23.6c8,0.9,17.3,0.8,25.4,0.2
			c2.7-0.2,5.4-0.5,8.1-0.8c15.5-2.1,28.9-6.4,41-12.1c18-8.6,33.1-19.9,45.5-34.1c4.1-4.7,8.1-9.6,11.6-14.9
			c11.8-17.7,20.7-38.3,23.5-65c1.1-10.8,0.8-23.2-0.6-33.3c-3.6-25.6-12.9-46.2-25.2-63.2c-9.9-13.7-21.7-25.4-35.9-34.9
			c-7.1-4.8-14.6-9-22.8-12.6c-14.2-6.2-30.9-10.7-50.4-11.5c-2.9-0.1-5.8-0.2-8.7-0.1C229,90.3,227.6,90.3,226.2,90.3z
			 M317.3,102.1c2,3.5,4.2,6.1,7.2,8.5c3,2.3,6.5,3.9,10.2,5.5c0.4,0.2,1.3,0.6,1.8,0.5c0.4-0.1,0.7-0.6,0.7-1c0-1-1.9-1.4-2.7-1.7
			c-1.1-0.4-2-0.9-3.1-1.4c-3.2-1.5-5.8-3.4-7.9-5.5c-0.7-0.7-1.5-1.4-2.2-2.3c-1-1.3-1.7-2.7-2.6-4.1c-0.4-0.7-0.8-1-1.4-0.9
			C316.1,100,316.8,101.3,317.3,102.1z M148.7,101.6c-1,1.4-1.7,2.4-2.8,3.7c-1.3,1.4-2.7,2.8-4.5,4.2c-1.5,1.2-3.5,2.4-5.5,3.2
			c-1.8,0.7-3.1,1-4.9,1.6c-0.9,0.3-1.1,0.6-1.2,1.1c0,1.4,1.5,0.9,2.4,0.7c1.9-0.5,3.5-1,5.1-1.7c5.7-2.6,9.7-7,13.2-11.5
			c0.3-0.4,0.8-1,0.7-1.6c-0.1-0.6-0.8-0.8-1.2-0.7C149.3,100.6,148.9,101.3,148.7,101.6z M118.8,115.9c0,0.6,1.1,1.4,1.5,1.8
			c0.6,0.6,1.1,1.3,1.6,1.8c2.8,2.8,5.6,5.8,8.3,8.5c0.5,0.5,1.1,1.5,1.9,1.5c0.4,0,0.9-0.3,0.9-0.9c0-0.6-0.9-1.4-1.4-2
			c-1.7-1.8-3.4-3.5-5-5.1c-2-2-3.8-4-5.8-6c-0.5-0.4-0.7-0.7-1.3-0.5C119.2,114.9,118.8,115.3,118.8,115.9z M345.8,117.8
			c-3.2,3.2-6.6,6.6-9.9,9.9c-0.6,0.6-1.4,1.4-1.4,1.9c0,0.6,0.6,0.9,1,0.9c0.7,0,1.4-1,1.9-1.5c3.5-3.5,6.7-6.7,10.2-10.2
			c0.6-0.6,1.5-1.2,1.4-2c-0.1-0.6-0.7-0.9-1.4-0.7C346.9,116.3,346.3,117.2,345.8,117.8z M117.9,124.2c-0.7,0.1-0.8,1-1,1.6
			c-1.4,4-2.6,7-5,10.2c-1.9,2.5-4.2,4.6-6.7,6.3c-0.6,0.4-2.4,1.2-2.4,2c0,0.6,0.6,1,0.9,1c0.5,0,1-0.4,1.5-0.7
			c0.5-0.3,1-0.5,1.4-0.8c4.6-3.1,7.8-7.1,10.2-12.3c0.5-1,0.9-2,1.4-3.1c0.4-1.1,0.9-2.3,1-3.5
			C118.8,124.4,118.5,124.1,117.9,124.2z M348.1,129.4c0.5,1.9,1.1,3.6,1.8,4.9c2.7,5.7,7.1,9.3,11.7,12.9c0.4,0.3,1,0.8,1.5,0.7
			c0.6,0,0.9-0.6,0.9-1.1c0-0.9-1.6-1.6-2.2-2c-2.4-1.8-4.8-3.9-6.8-6.2c-2.4-2.9-4-6.2-5.1-10.1c-0.3-1-0.4-1.9-1.5-1.6
			C347.2,127.2,347.8,128.3,348.1,129.4z M92.6,148c0,0.8,1.1,1.1,1.8,1.5c4.3,2.3,8.5,4.7,12.7,6.9c0.6,0.3,1.7,1.1,2.3,1
			c0.5-0.1,0.9-0.7,0.8-1.2c0-0.6-0.9-0.9-1.8-1.4c-0.9-0.5-1.5-0.8-2.1-1.2c-3.3-1.8-7.1-3.9-10.4-5.7c-0.8-0.4-1.8-1.1-2.4-1
			C92.9,147.1,92.5,147.5,92.6,148z M373.9,151.1c-1.4,0.6-2.8,1.5-4.1,2.2c-2.6,1.5-5.5,3.1-8.1,4.6c-0.5,0.3-1.2,0.7-2,1.2
			c-0.8,0.5-1.7,0.8-1.7,1.5c0,0.5,0.3,1,0.9,1.1c0.6,0.1,1.6-0.7,2.2-1c4.2-2.4,8.3-4.7,12.6-7.1c0.7-0.4,1.7-0.9,1.7-1.6
			c0-0.6-0.6-1-1.3-0.9C374,151,374,151,373.9,151.1z M93.4,159.3c-0.2,1.8-0.3,3.6-0.6,5.3c-0.7,3.2-1.7,6.2-3.1,8.7
			c-1.2,2.2-2.7,3.8-4.3,5.6c-0.2,0.2-0.8,0.9-0.7,1.3c0,0.4,0.3,0.9,0.9,0.9c0.9,0,1.6-1.3,2.2-2c0.8-0.9,1.3-1.6,1.9-2.3
			c2.5-3.3,4.1-7.1,4.9-12c0.3-1.8,0.5-3.6,0.7-5.6c0.1-0.6,0.2-1.5,0-1.9c-0.2-0.3-0.8-0.5-1.2-0.3
			C93.3,157.2,93.5,158.1,93.4,159.3z M371.3,161.8c-0.5,0.4-0.3,2.8-0.2,3.9c0.1,1.6,0.2,2.7,0.4,3.9c0.5,2.6,1.3,4.7,2.1,6.4
			c1.4,2.9,3.1,5.4,4.9,7.8c0.5,0.7,1.3,2.1,2.2,2.1c0.6,0,0.9-0.6,0.9-0.9c0-0.4-0.3-0.9-0.7-1.3c-0.4-0.4-0.7-0.8-0.9-1.1
			c-3.3-4.3-6.7-9.6-7-16.9c0-1.1,0.2-3.2-0.3-3.7c-0.4-0.4-0.7-0.3-1-0.3C371.6,161.7,371.4,161.7,371.3,161.8z M75.8,186.5
			c0.1,0.6,1,0.8,1.9,1c4.8,1.2,9.6,2.2,14.1,3.3c1.2,0.3,3.2,1.1,3.1-0.6c-0.1-0.7-0.8-0.9-1.8-1.2c-0.9-0.2-1.8-0.4-2.4-0.5
			c-4-1-8-1.9-11.8-2.8c-0.8-0.2-2-0.6-2.6-0.4C75.9,185.7,75.7,185.9,75.8,186.5z M390.1,191.4c-3,0.6-5.7,1.4-8.9,2.2
			c-1.4,0.3-2.6,0.6-4.5,1.1c-0.4,0.1-1.3,0.4-2.2,0.6c-1,0.2-1.8,0.3-2,0.9c-0.1,0.5,0.2,1.1,0.5,1.3c0.6,0.2,1.7-0.2,2.4-0.4
			c5.1-1.2,9.4-2.3,14.4-3.5c1-0.3,1.8-0.4,1.8-1.3c-0.1-0.7-0.6-0.9-1.5-0.8C390.2,191.4,390.1,191.4,390.1,191.4z M79.6,200
			c0.3,1.6,0.4,3.2,0.4,5.2c0.1,5.1-1.5,9.3-3.2,12.7c-0.3,0.6-0.7,1.1-0.6,1.7c0.1,0.2,0.4,0.7,1.1,0.7c0.6,0,0.8-0.7,1.2-1.4
			c2.2-4.1,3.8-9,3.5-15.2c-0.1-2.3-0.6-4.8-0.9-7c-0.1-0.8-0.3-1.7-0.7-2c-0.8-0.5-1.3,0.1-1.6,0.5C79,197,79.4,198.5,79.6,200z
			 M384.1,203.3c-0.7,2.5-1.1,4.7-1.1,7.5c0,2.9,0.7,6.5,1.4,8.7c0.4,1.2,0.8,2.4,1.4,3.8c0.4,1.1,0.9,3.2,1.9,3.3
			c0.6,0.1,0.9-0.2,1-0.5c0.3-0.7-0.4-1.8-0.7-2.7c-1.1-2.8-2.1-5.6-2.6-8.7c-0.4-2.2-0.4-4.7-0.1-7c0.2-1.8,0.6-3.1,1-4.6
			c0.1-0.3,0.4-1.2,0.3-1.6c-0.1-0.5-0.8-0.6-1-0.6C384.5,201,384.4,202.3,384.1,203.3z M87.7,226.1c-3.1,0-5.9,0.1-9.6,0.3
			c-2.1,0.1-5,0.2-7.2,0.3c-1,0.1-1.5,0.2-1.6,0.9c-0.1,1,0.8,1.1,1.9,1.1c5.5-0.3,10.6-0.4,16-0.7c1-0.1,1.8,0,1.8-1
			c0-0.7-0.5-0.9-1.2-0.9C87.8,226.1,87.7,226.1,87.7,226.1z M377,235.3c0.2,1.2,3,0.8,4.4,0.8c4.6,0.2,8.6,0.3,13.1,0.3
			c1.1,0,1.9,0,2.1-0.6c0.6-2-3-1.4-4.3-1.4c-4.4-0.2-8.1-0.1-12.3-0.2c-0.6,0-1.7-0.2-2.2,0C377.1,234.3,376.9,234.7,377,235.3z
			 M76,237.8c1.6,3.1,2.9,6.1,3.7,10c0.4,2.1,0.6,4.5,0.4,7.2c-0.1,1-0.3,2.2-0.5,3.4c-0.2,0.9-0.8,3,0.9,2.6c1-0.2,1.1-2.6,1.3-3.8
			c0.3-1.7,0.5-3.1,0.5-4.7c0-6-2.3-11-4.3-15.4c-0.4-0.9-0.8-1.9-1.8-1.6C75,235.9,75.8,237.2,76,237.8z M386.9,243.7
			c-1.3,2.3-2.3,4.3-3.1,6.9c-1.2,4.2-1.3,9.4-0.7,14.4c0.2,1.3,0.2,2.8,1.1,3c1.1,0.2,1.3-0.8,1.2-1.6c-0.2-1.5-0.4-3.1-0.5-4.4
			c-0.3-2.5-0.1-5.5,0.2-7.4c0.3-2.1,0.9-4.4,1.7-6.1c0.6-1.3,1.3-2.6,2-3.9c0.2-0.4,0.6-0.9,0.5-1.4c-0.1-0.7-0.8-0.9-1.4-0.7
			C387.4,242.6,387.2,243.1,386.9,243.7z M90.1,264.4c-3.8,1.1-7.4,2.4-11.2,3.6c-0.6,0.2-1.5,0.4-2.3,0.7c-1,0.3-1.7,0.5-1.7,1.3
			c0,1.6,1.9,0.8,3,0.5c4.7-1.5,9.2-3,13.9-4.5c1-0.3,1.8-0.4,1.9-1.2c0.1-0.8-0.5-1.1-1.3-1C91.6,263.8,90.8,264.2,90.1,264.4z
			 M370.9,273.4c0.1,0.7,1,0.7,2,1c4.7,1.3,9.4,2.7,13.9,3.9c1.2,0.3,3.2,1.1,3.1-0.5c0-0.7-0.9-1-1.8-1.2c-4.9-1.4-9.4-2.5-14-3.9
			c-0.8-0.2-2-0.6-2.6-0.5C371.1,272.4,370.8,272.8,370.9,273.4z M92,286.5c-0.5-0.9-0.9-1.9-1.4-2.8c-0.5-0.9-1.2-1.7-1.8-2.5
			c-0.5-0.7-1.1-1.5-1.8-2.4c-0.6-0.7-1.2-2.1-2.2-2c-0.7,0-0.9,0.8-0.9,1c0,0.5,0.5,0.8,0.8,1.2c2.3,2.7,4.2,5.5,5.8,8.8
			c1.3,2.8,2.3,5.9,2.4,10c0,1.1-0.2,3,1,3c0.5,0,0.5-0.2,0.9-0.5C95.1,295,93.9,290.4,92,286.5z M379.5,282.8
			c-0.8,0.4-1.6,1.5-2.2,2.2c-0.7,0.8-1.4,1.6-2,2.4c-3.4,4.5-4.9,9.4-5.8,16.2c-0.1,0.5-0.3,1.3-0.3,1.9c0,0.9,0.6,1.2,1.1,1.2
			c1.1-0.1,1-2.1,1.2-3c0.4-3.9,1.3-7.3,2.5-10.1c1.3-2.8,3-5.4,5.1-7.5c0.6-0.6,1.9-1.6,1.8-2.4c0-0.5-0.5-1-1.2-0.9
			C379.6,282.8,379.5,282.8,379.5,282.8z M106.6,300.7c-0.7,0.3-1.4,0.8-2,1.2c-4,2.4-8.2,4.8-12.3,7.2c-0.8,0.5-1.7,0.9-1.6,1.6
			c0,0.3,0.4,0.9,0.9,0.9c0.6,0.1,1.6-0.7,2.2-1c2.3-1.3,3.9-2.3,6.2-3.7c2-1.2,4-2.5,6.2-3.7c0.7-0.4,1.8-0.8,1.8-1.6
			c0-0.7-0.5-1.1-1.2-0.9C106.7,300.7,106.6,300.7,106.6,300.7z M356.3,306.4c0.1,0.6,1.1,1.1,1.8,1.5c3.5,2.2,6.7,4.2,10.2,6.4
			c0.6,0.4,1.3,0.8,2,1.3c0.6,0.4,1.6,1.2,2.3,1c0.4-0.1,0.8-0.7,0.7-1.1c0-0.7-1-1.1-1.7-1.6c-3.4-2.1-6.8-4.3-10.1-6.2
			c-0.5-0.3-1.3-0.8-2-1.2c-0.8-0.5-1.7-1.4-2.6-1.2C356.4,305.5,356.2,305.9,356.3,306.4z M101.4,315.4c0,0.5,0.5,0.8,1,1.1
			c3.1,2.1,6,4.4,8.3,7.2c1.9,2.2,3.6,5.3,4.7,8.6c0.3,1,0.5,2.9,1.6,2.8c0.5,0,1-0.3,0.9-1.3c-0.1-0.7-0.5-1.6-0.5-1.8
			c-1.2-3.9-2.7-6.6-4.8-9.2c-1.2-1.5-2.8-3.1-4.7-4.7c-1.1-0.9-2.2-1.7-3.3-2.5c-0.7-0.5-1.7-1.4-2.3-1.4
			C101.5,314.4,101.3,314.7,101.4,315.4z M361.5,317.7c-1,0.4-1.8,1.1-2.8,1.6c-2.9,1.7-5.1,3.6-7.2,6.2c-2.2,2.8-4,6.4-5.6,10
			c-0.3,0.6-0.6,1.2-0.4,1.7c0.1,0.4,0.6,0.7,1,0.7c1,0,1.4-2,1.7-2.7c1.3-3.1,3-6.1,4.9-8.5c1.9-2.4,4.4-4.6,7.2-6.2
			c0.7-0.4,2.5-0.9,2.5-2c0-0.6-0.5-1-1.3-0.9C361.6,317.7,361.5,317.7,361.5,317.7z M122.3,338.8c-1.2,1.2-2.9,3-4.3,4.5
			c-0.5,0.5-1.2,1.1-1.2,1.8c0,0.6,0.5,0.9,0.9,0.9c0.8,0,1.4-1,1.9-1.5c1.7-1.7,3.5-3.6,5-5.1c1.7-1.8,3.2-3.5,4.9-5.2
			c0.5-0.5,1.5-1.2,1.5-1.9c0-0.7-0.6-1-1.2-0.9c-0.8,0.1-1.3,1.2-1.8,1.6C126.1,334.8,124.3,336.8,122.3,338.8z M332.5,336.1
			c0.1,0.7,1.1,1.5,1.5,1.8c0.6,0.6,1.2,1.3,1.6,1.8c1.2,1.3,2.1,2.2,3.3,3.5c1.8,1.9,3.1,3.4,4.9,5.2c0.5,0.5,1.2,1.5,2,1.4
			c0.7-0.1,0.9-0.5,0.9-0.9c0-0.7-0.8-1.4-1.4-2c-0.5-0.5-1.3-1.4-1.6-1.7c-2.5-2.5-5-5.3-7.3-7.6c-0.6-0.6-1-1-1.7-1.7
			c-0.5-0.5-0.8-1-1.5-0.7C332.8,335.2,332.5,335.5,332.5,336.1z M128.6,346.7c0.1,1,2.1,1.2,2.8,1.6c4.3,1.7,8,3.9,10.9,6.8
			c1.5,1.5,2.8,3,3.9,4.9c0.4,0.7,1,2.5,2,2.4c0.4,0,0.9-0.3,0.9-0.8c0.1-0.4-0.3-1.1-0.6-1.6c-0.8-1.4-1.8-2.9-2.7-4
			c-2-2.5-4.4-4.5-7.1-6.2c-1.9-1.2-3.9-2.1-6-3c-1.1-0.5-2.1-1-3.2-1.3c-0.1,0-0.2,0.1-0.2,0.1C128.9,345.6,128.5,346,128.6,346.7z
			 M334.1,347.4c-4.7,1.1-8.6,2.8-12,5.5c-2.5,2-4.5,4.3-6.4,6.7c-0.5,0.6-1.8,1.9-1.8,2.6c0,0.5,0.5,0.8,0.9,0.9
			c0.7,0.1,0.9-0.4,1.3-0.9c1-1.3,2-2.5,3-3.7c3.4-4,7.7-7.1,13.5-8.7c0.9-0.2,2.9-0.5,2.9-1.6c0-0.7-0.5-1-1.2-0.9
			C334.2,347.4,334.1,347.4,334.1,347.4z M158.8,357.5c-2.4,4-4.8,8.2-7.1,12.2c-0.5,0.8-1.1,1.7-0.9,2.3c0.1,0.4,0.7,0.8,1.1,0.7
			c0.7,0,1.1-1.1,1.5-1.8c1.3-2.2,2.5-4.2,3.7-6.3c0.7-1.4,1.5-2.6,2.4-4.2c0.4-0.6,0.7-1.3,1.2-2.1c0.4-0.6,1.1-1.5,0.9-2.2
			c-0.1-0.5-0.6-0.8-1.3-0.6C159.7,355.7,159.2,356.8,158.8,357.5z M302.4,358.3c0,0.6,0.6,1.4,1.1,2.2c2.5,4.2,4.8,8.1,7.3,12.3
			c0.4,0.7,0.8,1.7,1.6,1.8c0.6,0,1-0.3,1.1-0.9c0-0.6-0.6-1.5-1-2.2c-2.4-4.1-4.9-8.1-7.3-12.2c-0.5-0.8-0.9-2.1-2-1.8
			C302.8,357.5,302.4,357.7,302.4,358.3z M296.7,368.2c-6.2,0.9-10.6,3.7-14.4,6.8c-0.7,0.6-1.5,1.1-2.3,1.9c-0.7,0.7-2,1.6-2,2.3
			c0,0.4,0.3,0.9,0.9,0.9c0.5,0.1,0.9-0.3,1.4-0.7c1.2-1.1,2.2-2,3.4-3c3.9-3.2,8.3-5.7,14.8-6.4c1.1-0.1,3.1,0,3.1-1.1
			c0-0.7-0.5-1-1.1-1C299.3,367.8,297.9,368,296.7,368.2z M162.4,370.4c0.2,1,2.1,0.8,3.2,0.9c3.8,0.4,7.1,1.3,10,2.6
			c2.9,1.3,5.2,3,7.4,5.1c0.6,0.5,1.5,1.9,2.4,1.8c0.5-0.1,0.8-0.6,0.8-1c0-0.6-1.3-1.6-2-2.2c-0.8-0.7-1.5-1.5-2.2-2
			c-3-2.4-7.2-4.3-11.6-5.2c-1.2-0.2-2.3-0.5-3.5-0.7c-1.2-0.2-2.4-0.3-3.7-0.5c-0.1,0-0.1,0.1-0.1,0.1
			C162.5,369.3,162.3,369.7,162.4,370.4z M268.5,373.3c1.1,3.9,2.2,7.7,3.4,11.6c0.4,1.4,0.7,4.1,1.9,4.1c1.6,0,0.9-1.8,0.5-2.9
			c-0.8-2.6-1.2-4.3-2-6.9c-0.8-2.6-1.3-4.4-2-6.8c-0.4-1.3-0.4-2.4-1.6-2.2C267.3,370.5,268.2,372.2,268.5,373.3z M194.4,373.4
			c-1.3,4.5-2.6,9.1-3.9,13.6c-0.2,0.8-0.6,1.8-0.4,2.4c0.2,0.4,0.8,0.6,1.2,0.5c0.6-0.1,0.8-1,1-2c0.2-0.9,0.5-1.7,0.7-2.3
			c1.1-4,2.1-7.8,3.2-11.7c0.2-0.7,0.7-1.8,0.5-2.4c-0.1-0.4-0.7-0.7-1.1-0.6C194.7,371.1,194.7,372.4,194.4,373.4z M231.9,378.1
			c0,4.6-0.1,8.4,0,13.1c0,1.1-0.4,4,1.4,3.7c0.6-0.1,0.7-0.9,0.7-1.8c0-2.3,0-4.3-0.1-7.1c0-2.7-0.1-5.1-0.1-7.8
			c0-1.6,0.2-3.2-1.3-2.8C231.5,375.6,231.9,376.8,231.9,378.1z M250,382c-3.6,0.8-6.3,2.1-9.4,3.5c-0.7,0.3-1.3,0.7-1.3,1.3
			c0,0.4,0.5,0.9,0.7,0.9c0.7,0.2,1.5-0.5,2-0.7c4.3-2,9.6-4,15.8-3.7c1.3,0.1,3.8,0.6,4.9,0.9c0.8,0.2,2.2,0.5,2.2-0.8
			c0-0.9-1-1-1.9-1.2c-2.6-0.6-5.7-1-8.5-0.8C253,381.5,251.5,381.7,250,382z M203.9,381.9c-1.1,0.2-3.8,0.1-3.8,1.4
			c0,1.4,1.8,0.9,2.6,0.7c1.3-0.2,2.4-0.4,3.5-0.5c5-0.5,9.7,0.1,13.4,1.6c1.3,0.5,2.7,1.3,3.9,2c0.9,0.5,2.3,0.8,2.2-0.5
			c0-0.5-0.7-1-1.4-1.4c-4.3-2.4-9-4.1-15.6-3.8C207.3,381.6,205.8,381.6,203.9,381.9z"/>
	</g>
	<g>
		<path class="st57" d="M232.2,120.5c1.5-0.1,3,1,3,2.6c0.1,2.3-2.1,3.4-3.8,2.8c-1.8-0.6-2.4-3.3-1-4.7
			C230.8,120.8,231.3,120.5,232.2,120.5z"/>
		<path class="st57" d="M289.6,136.7c1.6-0.1,3.1,1,3,2.8c0,3.7-5.7,3.6-5.6-0.1C287.1,137.8,288.1,136.9,289.6,136.7z"/>
		<path class="st57" d="M172.6,141c1.6-0.2,3,1.1,3,2.6c0.1,1.8-1.4,3.1-3,3c-1.5-0.1-3.1-1.7-2.4-3.7
			C170.5,141.9,171.3,141.2,172.6,141z"/>
		<path class="st57" d="M229.6,159.1c-0.3-0.4,0.2-0.7,0.3-1c-0.1-0.9-2.3-1.3-2.5,0c0,0.3,0.1,0.8,0.3,1.1c0.3,0.6,1.2,1.1,1.2,1.6
			c0,0.6-0.8,0.8-1.3,1c-0.6,0.3-1.2,0.8-2,1.2c-0.7,0.4-1.7,0.8-1.6,1.6c0.1,0.9,1.5,1,2.4,0.9c1.3-0.1,2.2-0.7,3.2-0.9
			c-0.1-0.7,0.1-1.2,0.6-1.2c0.4,0,0.3,0.4,0.5,0.8c0.6-0.1,1.2-0.5,1.8-0.8c0.6-0.3,1.3-0.5,1.8-0.9c0.3-0.3,0.4-0.9,0.8-0.9
			c0.8,0,0.6,0.8,0.1,1.3c-0.7,0.7-1.3,0.7-1.9,1.4c-0.5,0.5-0.6,1.4-1,1.6c-0.9,0.6-2.4,0.3-2.6-0.6c-1.1,0.4-2.3,1.2-3.7,1.3
			c-1.8,0.2-3.7-0.3-3.7-2c0-1.5,1.7-2.2,2.9-2.8c0.7-0.3,1.9-0.9,2-1.4c0-0.7-1-1-1.2-1.8c-0.1-0.5,0-1.2,0.3-1.6
			c0.9-1.4,4.7-1,4.6,0.9C230.9,158.5,230.5,159.4,229.6,159.1z M230.8,164.9c0.2,0.5,0.9,0.2,1.2,0c0.3-0.2,0.6-0.7,0.6-0.9
			C232.2,164.4,231.5,164.7,230.8,164.9z"/>
		<path class="st57" d="M236.7,161.6c0-0.8,0.9-0.5,1.4-0.7c0.4-0.1,0.8-0.6,1.2-0.9c0.7-0.7,1.4-1.3,2.2-2c0.4-0.3,0.8-0.7,1.4-0.5
			c-0.3,0.8-1,1.2-1.5,1.8c-0.5,0.5-1.1,1-1.6,1.6c3.7-0.4,8.2-0.9,12.7-0.7c0.9,0,1.9,0,2.4,0.7c-3.6-0.1-8,0-11.7,0.4
			c-0.6,0.1-1.3,0.2-2,0.2c-0.7,0.1-1.5,0-1.9,0.2c-0.6,0.2-1.3,1.1-1.8,1.6c-0.2,0.3-0.5,0.6-0.7,0.9c-0.3,0.4-0.7,0.8-0.5,1.3
			c0.3,0.6,1.3,0,1.8-0.1c0.8-0.3,1.1-0.6,1.8-0.7c0.1,0.4-0.5,0.8-0.9,1c-0.5,0.3-1.1,0.6-1.7,0.7c-1.1,0.1-2.1,0-2.2-0.9
			c-0.1-1.5,2-2.7,2.5-3.6C237.9,161.5,236.8,161.9,236.7,161.6z"/>
		<path class="st57" d="M242.9,165.1c0.1,0.6,0,0.6-0.5,0.9c-0.4,0.3-0.7,0.6-1.1,0.1C241.2,165.2,242.2,164.5,242.9,165.1z"/>
		<path class="st57" d="M230.6,170.6c2.7-0.2,6,0.2,7.2,1.4c1.5,1.5,1.4,4.6,0.1,6c-1.1,1.2-3.3,1.5-5.4,1.6c-3.1,0-6.1-0.4-7.1-2.6
			c-0.8-1.9-0.2-4.3,1.2-5.3C227.5,171,228.7,170.8,230.6,170.6z M226.5,173.3c-0.5,0.8-0.5,2.7,0,3.5c0.8,1.3,3.5,1.7,5.6,1.6
			c2.3,0,4.7-0.4,5.4-1.9c0.4-0.9,0.3-2.3,0-3c-0.8-1.8-4.4-2-6.6-1.8C228.9,171.9,227.2,172.1,226.5,173.3z"/>
		<path class="st57" d="M240.9,170.7c1.1-0.7,1,1,1,2.2c0,1.8,0,3.3,0,5c0,1,0,1.8-0.7,1.8c-0.7-0.1-0.5-1.2-0.5-2
			c0-0.9,0-1.7,0-2.4C240.8,173.6,240.7,172,240.9,170.7z"/>
		<path class="st57" d="M244.9,171.7c0,0.8,0,1.7,0,2.5c1.6-0.4,3.4-0.5,5.3-0.4c1.6,0.1,3.5,0.4,4.3,1.4c0.7,0.9,0.5,2.3,0,3
			c-1.2,1.6-5.8,1.7-8.7,1.2c-0.9-0.1-2.4-0.5-2-1.3c0.1-0.3,0.2-0.3,0.5-0.3c0.3,0,0.3,0.1,0.5,0.2c1.2,0.3,2.6,0.5,4.1,0.5
			c2.3,0,5.1,0,4.9-1.9c-0.1-1.5-2.9-1.6-4.5-1.6c-1.1,0-2.1,0-3,0.1c-0.9,0.1-1.7,0.6-2.4,0.5c-0.3-0.4-0.2-1.4-0.2-2.4
			c0-0.9-0.1-2.2,0.2-2.4c0.6-0.2,2-0.1,3-0.1c1.8,0,3.7,0,5.6,0c1,0,2.2-0.2,2.2,0.5c0,0.8-1.2,0.6-2,0.6
			C250.2,171.7,247.4,171.7,244.9,171.7z"/>
		<path class="st57" d="M213.4,178.4c2.3,0.1,5.2,0.1,7.9,0.1c0.8,0,2-0.2,2,0.5c0,0.8-1.4,0.6-2.4,0.6c-2,0-3.8,0-5.8,0
			c-1,0-2,0.1-2.8-0.1c-0.4-1.5,0.3-2.3,1.1-3c0.7-0.6,1.8-1.1,3.1-1.2c1.8-0.1,5.2,0.1,5.8-1.2c0.1-0.3,0.1-0.8,0-1
			c-0.4-1.2-2.9-1.3-4.9-1.3c-1,0-1.8,0-2.9,0.2c-0.7,0.1-2,0.8-2.2,0.1c-0.4-1.1,2.8-1.4,3.7-1.5c2.7-0.2,6.1,0.1,7.1,1.4
			c0.5,0.7,0.7,2.1,0,3C220.9,177.7,214.4,175,213.4,178.4z"/>
		<path class="st57" d="M328,177.9c1.7-0.2,3.1,1,3.1,2.7c0,1.6-1.2,2.8-2.6,2.8C324.7,183.6,324.6,178.2,328,177.9z"/>
		<path class="st57" d="M135.8,178.4c1.5-0.1,2.9,0.9,3,2.4c0.2,1.6-1.1,3.2-2.9,3.1C132.6,183.9,132.3,178.7,135.8,178.4z"/>
	</g>
	<g>
		<path class="st57" d="M229.6,90.3c5.8-0.3,11.6,0,17.1,0.5c5.3,0.5,10.5,1.3,15.4,2.3c19.6,4.1,35.7,11.4,49.9,20.9
			c3.5,2.3,6.9,4.9,10.2,7.5c16.3,13.2,29.5,29.4,39,49.4c3.8,8,7.1,16.6,9.4,26c1.2,4.7,2.2,9.6,2.9,14.8c1,7.7,1.6,16.2,1.3,25.1
			c-0.3,8.4-1.4,16.4-2.8,23.7c-2,9.8-4.9,18.7-8.5,26.9c-5.4,12.3-12,23.3-20,33.1c-13.2,16.3-29.4,29.5-49.4,39
			c-8,3.8-16.6,7.1-26,9.4c-4.7,1.2-9.6,2.2-14.8,2.9c-5.2,0.7-10.6,1.1-16.3,1.4c-5.8,0.3-11.5-0.1-17-0.6
			c-16-1.4-30.2-5.6-42.3-10.8c-8.3-3.6-15.8-7.7-22.9-12.5c-17.7-11.8-31.9-27-43.1-45.4c-6.6-10.9-12.1-23.5-15.6-37.5
			c-1.8-7.1-3.1-14.6-3.8-22.7c-1.2-13.9,0-29,2.4-40.8c4.1-19.6,11.5-35.6,20.9-49.8c11.8-17.7,27-31.9,45.4-43.1
			c10.9-6.6,23.5-12,37.5-15.6c7.1-1.8,14.7-3.1,22.7-3.8C223.9,90.4,226.7,90.4,229.6,90.3z M221.6,95.6c-2.6,0.2-5.2,0.5-7.6,0.9
			c-14.9,2.2-27.9,6.3-39.4,11.8c-23,11.2-41.3,27.1-54.9,47.5c-4.5,6.8-8.6,14.1-12,22.1c-5.1,11.7-9,25.4-10.4,40.8
			c-0.7,7.9-0.8,16.7-0.1,24.6c0.2,2.6,0.5,5.2,0.9,7.6c2.2,14.9,6.3,27.8,11.8,39.4c11.2,23,27,41.2,47.5,54.9
			c6.9,4.6,14.1,8.6,22.1,12.1c11.7,5.1,25.4,9,40.8,10.4c7.9,0.7,16.7,0.8,24.6,0.1c2.6-0.2,5.1-0.5,7.7-0.9
			c14.9-2.2,27.9-6.3,39.4-11.8c23.1-11.2,41.2-27,54.9-47.5c4.6-6.9,8.6-14.1,12-22.1c5.1-11.8,9-25.4,10.4-40.8
			c0.7-7.8,0.8-16.7,0.1-24.6c-0.2-2.6-0.5-5.2-0.9-7.6c-2.2-14.9-6.2-27.8-11.8-39.4c-11.2-23-27-41.2-47.5-54.9
			c-6.9-4.6-14.1-8.6-22.1-12.1c-11.7-5.1-25.4-9-40.8-10.4c-5.3-0.5-10.8-0.8-16.5-0.5C226.9,95.3,224.2,95.3,221.6,95.6z"/>
		<path class="st57" d="M118.2,216.7c-0.8-0.2-1.5-1.3-2.5-1.4c-1.2-0.2-1.9,0.4-2.5,1.2c-0.9,1.7-1.5,4.1-1.5,6.5
			c0,2.8,0.9,5.2,2,7c0,0.2-0.5-0.3-0.6-0.5c-1.4-1.6-2.3-3.6-2.8-6.3c-0.6-3.4,0.1-7.3,2.3-9.1c0.2-0.2,0.6-0.4,0.9-0.5
			C116,212.5,117.9,214.5,118.2,216.7z"/>
		<path class="st57" d="M352.8,229.9c1-1.5,2-4,2-6.8c0.1-2.4-0.5-5.1-1.5-6.6c-0.5-0.7-1.1-1.4-2.4-1.2c-1.1,0.1-1.5,1-2.6,1.4
			c0.4-1.6,1.2-3.1,2.8-3.4c1.6-0.2,2.7,0.6,3.4,1.4c3,3.6,1.9,10.9-0.6,14c-0.3,0.4-0.6,0.7-0.9,1
			C353,229.7,352.9,230.1,352.8,229.9z"/>
		<path class="st57" d="M213.5,228c-8.9,0.7-18.9,0.7-27.9,0.1c4.2-0.4,8.7-0.4,13.2-0.6c2.5-0.1,5.1,0,7.6,0.1
			C208.9,227.7,211.2,227.8,213.5,228z"/>
		<path class="st57" d="M280.9,228c-0.3,0.2-0.8,0.2-1.2,0.2c-1.1,0-2.4,0-3.4-0.1C277.5,227.7,279.4,228,280.9,228z"/>
		<path class="st57" d="M189.3,236.6c6.4,1.4,12.2,3.3,17.6,5.8c-0.8,0-1.6-0.3-2.3-0.5c-2.3-0.6-4.5-1.1-6.8-1.9
			c-2.9-1-5.7-2.1-8.4-3.2C189.3,236.8,189.3,236.7,189.3,236.6z"/>
		<path class="st57" d="M212.4,238.9c0.9,1.2,1.7,3.5,0.9,5.3c-0.2,0.5-0.7,1.1-1,1.5c-1,1-2.4,1.8-3.7,2.5c-0.4,0.2-1,0.4-1.4,0.7
			c-0.6,0.5-1.2,1.7-1.4,2.6c-0.2,0.8-0.2,1.8-0.4,2.6c-0.5,1.8-1.7,3.1-3.8,3.4c-1.2,0.1-2.5-0.1-3.5-0.1c2.3-0.3,4.6-0.9,5.6-2.6
			c1-1.6,0.7-4.1,1.6-5.6c0.7-1.2,2.2-1.9,3.7-2.6c0.7-0.4,1.5-0.7,2.1-1.2c0.6-0.6,1.3-2,1.5-3.1
			C212.8,240.9,212.6,239.8,212.4,238.9z"/>
		<path class="st57" d="M183.4,241.3c-3.3-0.6-7.1-1.4-11.1-1.2c-3.9,0.2-7.9,0.5-11.5,0.8c3.3-1.2,7.7-1.7,12-1.9
			c3.5-0.2,7.1,0.6,9.6,1.7C182.8,240.9,183.2,241.1,183.4,241.3z"/>
		<path class="st57" d="M305.7,240.8c-1,0.1-2.1-0.1-3.2-0.2c-4.2-0.3-8.9-0.8-13.4-0.3c1.2-0.9,3.1-1,4.9-1.1
			C298.2,238.9,302.4,240,305.7,240.8z"/>
		<path class="st57" d="M139.5,244.3c2.7-0.1,4.9,1.8,4.9,4.6c0,2.5-1.9,4.4-4.2,4.6c-2.5,0.2-5.2-1.7-5.1-4.9
			c0-0.7,0.4-1.8,0.7-2.2C136.4,245.3,137.8,244.4,139.5,244.3z M137.4,246.9c-0.4,0.4-0.8,1-0.7,2.1c0,1.4,1.3,3,3.1,2.9
			c2.1-0.1,3.4-2.3,2.7-4.1c-0.5-1.3-1.8-2.1-3.5-1.8C138.4,246.2,137.8,246.5,137.4,246.9z"/>
		<path class="st57" d="M325.2,248.4c1.2-0.5,1.5-1.8,3.2-1.7c1.7,1.5-1.4,2.6-2.2,3.5c0.3,0.4,0.6,1,0.9,1.6
			c0.4,0.5,0.9,0.9,0.8,1.6c-0.1,0.6-0.5,0.9-1.2,0.9c-0.7-0.1-0.9-0.8-1.2-1.3c-0.4-0.6-0.7-1-1-1.5c-0.5,0.3-0.9,0.6-1.4,1
			c-0.4,0.3-1,0.9-1.6,0.9c-0.7,0-1.1-0.6-0.9-1.4c0.2-0.9,2.2-1.6,2.7-2.3c-0.2-0.5-0.6-0.9-0.9-1.4c-0.3-0.4-0.8-0.9-0.7-1.5
			c0-0.8,0.9-1.3,1.7-0.8c0.3,0.2,0.6,0.8,0.8,1.2C324.6,247.7,324.9,248.1,325.2,248.4z"/>
		<path class="st57" d="M196.7,259.4c1.1,1.4,1.1,3.8-0.1,5c-1,1-2.9,1.1-4.5,0.7c1.4-0.3,2.8-0.6,3.7-1.6
			C196.7,262.6,196.9,261.3,196.7,259.4z"/>
		<path class="st57" d="M229.2,96.7c5.6-0.3,11.1,0,16.3,0.5c15.2,1.3,28.9,5.2,40.4,10.2c8,3.4,15.2,7.4,21.9,11.8
			c3.4,2.2,6.7,4.6,9.7,7.1c6.2,5,11.9,10.6,17.2,16.6c2.6,3,5.2,6.1,7.5,9.3c4.7,6.5,8.8,13.6,12.6,21.1c0.9,1.9,1.8,3.8,2.6,5.8
			c4.1,9.8,7.3,20.8,9.1,33c1.4,9.7,1.7,21.4,0.8,31.9c-1.3,15.3-5.2,28.8-10.2,40.4c-6,14-13.6,25.6-22.9,36.2
			c-6.5,7.4-13.9,14.3-22,20.2c-12.9,9.4-28.1,17-45.9,21.5c-6.8,1.7-13.8,3-21.6,3.7c-13.3,1.2-27.7,0.1-39-2.2
			c-25.6-5.3-45.5-16.4-61.9-30.9c-7.4-6.5-14.3-13.9-20.2-22c-7.1-9.7-13.1-20.7-17.6-33c-3.8-10.3-6.5-21.7-7.6-34.5
			c-1.2-13.3-0.1-27.7,2.2-39c5.3-25.6,16.4-45.5,30.9-61.9c6.5-7.4,13.9-14.3,22-20.2c6.5-4.8,13.6-8.8,21.1-12.6
			c1.9-0.9,3.8-1.8,5.8-2.6c11.8-4.9,25.2-8.6,40.6-10C223.8,96.9,226.5,96.8,229.2,96.7z M280.2,238.1c-1.4-2.3-3.4-4-5.4-5.8
			c0.1,0,0.1,0.1,0.1,0.1c3.7,1.3,5.7,3.1,7.5,6c1.6,2.6,2.2,5.7,2.7,9.1c0.1,0.5,0,1.1,0.2,1.5c0.1,0.3,0.7,0.7,1,1
			c1,1,2.1,2.2,3.1,3c5-1.3,11.5-1,17.2-1.4c-3.6-0.6-7.2-1.3-10.5-2.2c7,0.1,13.4,0.8,19.5,1.8c0.7-7.7-0.7-14.4-2.4-20.1
			c-0.6-1.9-1.2-3.8-2.2-5.4c-4.2-0.1-8.9-0.3-13.2-0.6c4.2-0.3,8.2-0.7,12.7-0.7c-0.6-1.5-1.7-3-2.8-4.3c-0.3-0.4-0.8-1.2-1.2-1.2
			c-0.3-0.1-1,0.2-1.6,0.3c-3.6,0.8-7.9,1.2-12.2,1.2c-2.7,0-5.1-0.1-7.4,0.1c-1.2,0.1-2.2,0.3-3.3,0.5c-1.1,0.2-2.2,0.5-3.2,0.5
			c1.6-0.6,3.3-1.3,5.3-1.7c6-1.2,13.9,0,19.4-1.7c-2.4-0.4-5-0.7-7.7-0.7c-4.2,0-8.1,0.1-11.8-0.6c-3.6-0.7-6.7-1.8-9.6-3
			c0.4,1.8,0.8,3.8,0.7,5.9c-0.1,1.8-0.7,3.6-1.3,5c-0.2,0.5-0.4,1-0.8,1.3c0.2-2.3,0.6-4.4,0.4-6.6c-0.2-3.1-1.1-5.3-2.2-7.5
			c-1.5-3.2-3.6-5.4-6.6-6.8c-1.7,2.3-3.2,4.6-4.8,7.1c-1.1,1.7-2.4,3.6-3.1,5.8c-0.2,0.7-0.8,1.8-0.7,2.4c0.1,0.4,1.1,1.1,1.6,1.6
			c3.8,3.8,7.6,7.4,11.3,11c0.4-0.6,1.1-1.3,1.6-1.8c0.2-0.2,0.3-0.5,0.5-0.5c-0.3,1.2-0.7,2.2-1.2,3.3c4.3,4.3,8.6,8.4,12.9,12.7
			c0,0.1,0.2,0.2,0.1,0C282.5,243.1,281.6,240.3,280.2,238.1z M342.5,157.4c-13.3-19.4-31.2-35.2-53.4-45.6c-9.8-4.5-20-8-32.2-10.2
			c-7.7-1.4-17.1-2.5-26.2-2.1c-2.3,0.1-4.5,0.1-6.6,0.3c-15.1,1.1-27.9,4.3-39.5,8.9c-13.1,5.2-24.7,12.1-34.8,20.5
			c-20.3,16.8-35.6,38.2-43.8,66.9c17.8,0,35.7,0,53.5,0c8.4-16.4,20.8-29.2,37.5-37.4c10-4.9,22-8.5,36.6-8.5
			c9.6,0,18.1,1.7,25.7,4.1c3.7,1.2,7.3,2.7,10.6,4.3c10.1,5.1,18.4,11.6,25.5,19.6c4.4,4.9,8.4,10.6,11.4,16.7
			c0.2,0.4,0.3,0.9,0.7,1.2c17.7,0,35.3,0,53,0C356.3,181.5,350.2,168.6,342.5,157.4z M293.8,180.8c-4.5-5.3-9.8-10.1-15.8-14.1
			c-8.8-5.9-19.2-10.7-32-12.7c-4.2-0.7-9.5-1.2-14.1-0.9c-2.4,0.1-4.7,0.2-6.8,0.4c-6.7,0.7-12.4,2.1-17.9,4
			c-21.5,7.6-36.4,22.1-46,41.5c-18.7,0-37.4,0-56.1,0c-0.2,1-0.5,2-0.7,3c2.7,0.6,6.1,1.4,8.9,2c1,0.2,2,0.6,3,0.7
			c1.6,0.2,2.9-0.4,4.2-0.5c2.2-0.3,3.8,0.3,5.1,1.1c0.7,0.4,1.4,0.8,2,1.2c0.5,0.4,0.8,1.1,1.5,1.6c2-1.1,4.6-0.1,6.5,0.3
			c7.2,1.6,14,3.3,22.4,3.7c1.5,0.1,3,0,4,0.4c1.3,0.5,1.8,1.8,2.4,3.2c4.8-1,10-1.8,14.6-2.9c1.6-0.4,3.2-0.9,4.7-1.2
			c1.7-0.3,3.5-0.4,5.2-0.6c5.3-0.6,10.3-1.4,15.7-1.9c0-0.3-0.2-0.5-0.3-0.7c-1.2-1.7-2.3-3.3-3.5-4.9c-1.4-1.8-2.9-3.6-4.3-5.3
			c-1.5-1.7-3-3.5-4.5-5.1c-1.5-1.7-3-3.4-4.7-4.9c-1.3,0.4-2.8,0.1-3.1-1c-0.2-0.7,0.2-1.2,0.1-1.7c-0.1-0.3-0.5-0.7-0.8-1
			c-0.3-0.3-0.7-0.6-0.9-0.9c-0.6-0.7-1.2-1.6-1.8-1.8c-0.2-0.1-0.5,0-0.7-0.1c-0.2,0-0.4-0.1-0.6-0.2c-2.1-1-0.3-3.8,0.7-4.9
			c2.1-2.3,4-3.9,6.1-6c0.8-0.8,2.3-2.2,3.5-2.6c1.5-0.4,2.6,0.2,3,1.2c0.1,0.4,0,0.9,0.1,1.5c0.1,0.2,0.4,0.6,0.7,0.9
			c0.6,0.6,1,1.1,1.6,1.7c0.2,0.3,0.6,0.7,0.9,0.8c0.3,0.1,0.5-0.1,0.7-0.1c0.7,0,1.3,0.3,1.7,0.7c0.4,0.5,0.5,1.5,0.1,2.4
			c0.5,0.9,1.3,1.4,2,2.2c3.3,3.6,6.9,6.9,10.6,10.1c1.3,1.1,2.6,2.4,3.9,3.4c0.2,0.1,0.5,0.5,0.5,0.3c-1.3-3.4,0-7.5,2.7-8.3
			c1.7-0.5,2.9,0.3,4.1,0.9c1.4,0.7,2.5,1.5,3.7,2.4c0.7,0.5,1.3,1.1,1.8,1.3c0.5,0.2,1.4,0.2,2,0.2c2.2,0,4.3-0.4,6.5-0.3
			c2.9,0.2,5.1,1,7,2.1c1,0.6,1.9,1.2,3,1.6c1.1,0.4,2.2,0.8,3.3,1.3c3.4-2.5,6.4-5.4,9.6-8.1c2.4-2.1,4.6-4.4,6.7-6.6
			c0.7-0.8,1.5-1.5,2.1-2.4c-0.3-0.8-0.3-2,0.2-2.5c0.3-0.4,1.2-0.6,1.6-0.6c0.2,0,0.5,0.1,0.7,0.1c0.5-0.1,1.1-1.1,1.6-1.6
			c0.6-0.6,1-1,1.6-1.7c-0.3-2.1,1.1-3.4,3.2-2.8c1,0.3,2.3,1.5,3.1,2.3c1.8,1.7,3.8,3.7,5.5,5.3c0.9,0.9,1.9,1.9,2.4,3
			c0.7,1.9-0.4,3.1-2.1,3c-1,1-1.8,1.7-2.7,2.8c-0.3,0.3-0.8,0.7-0.8,1c0,0.2,0.1,0.5,0.1,0.8c0.1,1.9-1.5,2.2-3.2,1.9
			c-0.7,0.4-1.2,1-1.8,1.6c-3.9,4.3-8.1,8.6-11.5,13.4c2.2,1.2,3.7,2.5,5.1,4.3c0.5,0.6,0.8,1.3,1.3,1.9c0.3,0.3,0.8,0.7,1.2,1
			c2.9,2.4,7.4,3.5,11.6,4.3c5.1,1,11.3,0.3,17.1,0.3c0.5-1.2,1-2.1,2.1-2.6c1.1-0.5,2.5-0.4,4.1-0.5c7.5-0.4,13.5-1.7,19.8-3.2
			c1.2-0.3,2.5-0.5,3.8-0.8c1.9-0.5,4-1,5.3-0.1c2-2.1,4.6-4.4,8.7-3.9c0.9,0.1,1.8,0.4,2.7,0.5c1.6,0.2,3-0.3,4.5-0.6
			c2.9-0.6,6.1-1.5,8.7-2.1c-0.3-1-0.5-2-0.7-3c-18.6,0-37.1,0-55.7,0C302.3,192.2,298.4,186.1,293.8,180.8z M193.1,174.2
			c-0.6-0.6-1.2-1.1-1.7-1.8c0,0-0.1,0-0.1,0c0-0.1-0.1,0-0.1,0c-0.1,0-0.1,0.1-0.1,0.1c0,0.6,0.1,1.1,0.4,1.6
			c0.3,0.5,1.5,1.6,2.1,2c0.3,0.2,0.8,0.3,1.1,0.1C194.2,175.4,193.6,174.8,193.1,174.2z M275.3,172.3c0,0.1-0.1,0.1-0.1,0.1
			c-0.5,0.6-1.1,1.2-1.7,1.8c-0.6,0.6-1.2,1.2-1.6,2c0.2,0.1,0.5,0.1,0.8,0c0.7-0.2,2-1.6,2.4-2.1c0.3-0.5,0.5-1.1,0.4-1.7
			C275.4,172.4,275.3,172.4,275.3,172.3z M223.5,201.7c-3.2-2.2-6.4-4.5-9.3-6.9c-5.4-4.4-10.7-9-15.4-14.1c-0.1,0-0.1-0.1-0.1-0.1
			c-0.1,0-0.1,0.1-0.1,0.1c0,0-0.1,0-0.1,0.1c-0.1,0.4,0.5,1.3,0.9,1.8c0.4,0.6,0.9,1.1,1.3,1.6c2.8,3.1,5.7,6,8.7,8.6
			c3.6,3.2,7.4,6,11.7,8.4c1,0.6,1.8,1.3,3,1.2C224.2,202,223.7,201.8,223.5,201.7z M264.8,183.8c-3,2.9-6.1,5.6-9.3,8.3
			c-2.1,1.8-4.3,3.6-6.5,5.2c-2,1.5-4,3-6,4.3c-0.2,0.1-0.8,0.2-0.7,0.7c0.9,0.2,1.5-0.4,2.1-0.7c2.2-1.2,4.3-2.5,6.2-3.9
			c4.6-3.3,8.7-6.8,12.4-10.8c1.6-1.7,3.4-3.5,4.7-5.4c0.1-0.2,0.5-0.7,0.1-0.9c0,0,0-0.1-0.1-0.1
			C266.8,181.6,265.9,182.8,264.8,183.8z M218.8,186.7c-0.3,0.7,0,1.7,0.4,2.1c0.3,0.3,0.9,0.5,1.4,0.7c1.5,0.6,3.7,1,5.2,1
			C223.6,189,221.7,187.4,218.8,186.7z M217.5,193.4c0.2,0.5,0.7,1.2,1.2,1.8c1.6,2.2,4.1,4.1,7.2,4.4c1.3,0.1,2.5-0.3,3.9-0.3
			c-0.7,0.8-1.8,1.2-2.8,1.7c2.9,0.8,6.3,1,9.7,0.5c2.5-0.4,4.3-1,6-2c0.6-0.3,1.3-0.7,1.8-1.1c1.2-0.8,2.4-1.7,3.3-2.6
			c-1.4-0.5-2.4-0.9-3.7-1.5c-1.1-0.5-2.1-1.4-3.3-1.9c-0.9-0.4-1.9-0.6-2.9-0.7c-3.4-0.6-7,0-10.5,0.1c-1,0-2,0.1-3,0
			c-1.9-0.1-4.2-0.8-5.6-1.7c-0.8-0.5-1.2-1.2-1.4-2C216.8,189.8,216.8,191.8,217.5,193.4z M121.7,206.1c-1.1-0.1-2,0.4-3.1,0.5
			c-2.2,0.4-3.8-0.2-5.5-0.6c-3.1-0.7-6.1-1.4-9.1-2c0,0,0-0.1-0.1-0.1c-1.8,8.4-2.9,17.8-2.9,27.8c5.4,0.6,10.4,1.5,15.4,2.6
			c-1.1-6.7,1.5-12.1,4.7-15c-0.8,2.2-1.8,4.4-2.4,6.9c-0.6,2.6-0.7,5.2-0.1,8.1c0.7-4.4,2.1-8.9,3.4-12.7c0.3-0.8,0.7-1.5,0.7-2.4
			c0-3.4-3.2-5.9-2.9-9.1c0.1-1.2,1.2-2.3,2.7-2c0.4,0.1,0.9,0.3,0.9,0.7c-1.7-0.2-2.3,1.5-1.8,2.8c0.4,1.3,1.7,2.7,2.2,4.1
			c0.1,0.4,0.1,0.7,0.3,0.9c0.9-2.6,2.3-4.6,3.7-6.7C126.5,207.7,124.4,206.2,121.7,206.1z M353.3,206.1c-1.7,0.4-3.5,0.9-5.5,0.5
			c-1.1-0.2-2-0.6-3.1-0.5c-2.6,0.2-4.8,1.7-5.9,3.6c1.4,2.1,2.7,4.2,3.7,6.7c0.2-1.6,1.9-3.4,2.4-5.1c0.1-0.2,0.1-0.4,0.1-0.6
			c0.1-1.4-0.7-2.1-2-2.2c1.1-1.4,3.2-0.4,3.6,0.7c0.1,0.2,0.1,0.4,0.1,0.7c0.2,3.3-3,5.7-2.9,9.1c0,0.9,0.5,1.5,0.7,2.2
			c1.4,4,2.5,8.5,3.5,12.9c0.5-2.9,0.4-5.5-0.2-8.1c-0.6-2.5-1.7-4.8-2.4-7c3.2,3.2,5.8,8.4,4.7,15.1c4.8-1.1,9.8-1.9,15.1-2.6
			c0-9.9-1.1-19.3-2.9-27.6C359.6,204.5,356.2,205.5,353.3,206.1z M226.6,208.6c-0.7,0.5-1.3,1.1-1.8,1.6c-3.4,3.5-6.9,7.2-10,10.6
			c0.6,0.3,1.1,0.7,1.8,1c3.3-3.6,6.7-7.2,10-10.7c0.9-0.9,1.7-1.8,2.6-2.6c0.3-0.3,0.6-0.6,0.8-0.9
			C228.5,207.2,227.6,207.9,226.6,208.6z M157.7,214c-8.4-0.4-15.5-2.1-22.6-3.8c-1.2-0.3-2.5-0.8-3.6-0.8c-0.2,0-0.4,0-0.5,0
			c-1.3,0.2-2.1,2.1-2.8,3.2c-2.2,3.7-3.8,7.7-5.2,12c-1.4,4.4-2.5,9.1-3.2,14c-0.2,1.7-0.5,3.5-0.5,5.2c0,4.1,1,8,2.2,11.2
			c0.4,1,0.9,2.6,1.6,3c0.6,0.3,2,0.1,3,0.1c3.3-0.2,7,0.3,10,0.2c2.2-0.1,4.2-0.4,6.2-0.7c0.9-0.2,1.9-0.4,2.7-0.7
			c1.8-0.7,3.2-1.3,3.7-3c0.5-1.7,0.2-4.1,0.1-6.1c-0.1-2,0.1-4.2,0.3-6.2c0.3-3.9,1.3-7.6,2.2-10.8c0.5-1.7,1.1-3.3,1.7-4.8
			c2-4.7,4.5-8.2,8.5-11c0-0.1,0.6-0.3,0.2-0.4C160.5,214,159,214.1,157.7,214z M305.2,215c1.1,0.9,2.1,1.7,3.1,2.6
			c2.3,2.2,3.7,5,5.1,8.1c0.7,1.5,1.3,3.1,1.8,4.8c0.9,3.2,2,7.2,2.3,10.9c0.2,1.8,0.4,4.1,0.3,6.4c-0.1,2-0.5,4.6,0.1,6.3
			c0.6,1.7,2,2.1,3.7,2.8c0.9,0.3,1.7,0.7,2.6,0.8c2,0.3,4.1,0.6,6.2,0.7c3,0.1,6.8-0.4,10-0.2c1,0,2.4,0.3,3.1-0.1
			c0.6-0.3,1.2-1.9,1.6-3c1.2-3.3,2.2-7.2,2.2-11.3c0-1.7-0.3-3.4-0.5-5.1c-0.7-5-1.7-9.6-3.1-13.9c-0.9-2.8-2-5.4-3.2-8.1
			c-0.5-1.2-1.2-2.4-2-3.7c-0.6-1.1-1.5-2.9-2.4-3.3c-0.5-0.2-1.3-0.2-1.6-0.1c-4.5,1-9.2,2.3-14.1,3.2c-3.8,0.7-7.5,1.2-11.6,1.4
			c-1.2,0.1-2.6,0-3.8,0.5C304.8,214.8,305.1,214.9,305.2,215z M219.3,239.9c3.8,4.8,9,9.2,13.4,13.6c1.1,1.1,2.2,2.4,2.9,3.9
			c0.3,0.5,0.4,1.4,0.7,1.6c0.5,0.5,1.7,0.4,2.4,0.2c1.6-0.3,3-1.6,3.5-2.8c0.8-1.6,1-4.5,0.2-6.3c-0.2-0.4-0.5-0.8-0.7-1.2
			c-0.6-1.1-1.1-2-1.8-2.8c-0.1-0.1-0.2-0.6-0.3-0.3c-0.4,2.8-2.1,4.3-4.7,4.9c1.3-1.3,3.1-2.3,3.3-4.6c0.2-2.2-1-3.6-2-4.7
			c-0.3-0.4-0.7-0.8-1.1-1.2c-2.1-2.3-4.5-4.5-6.8-6.6c-3-2.7-6.1-5.1-9.3-7.4c-0.2-0.1-0.5-0.5-0.6-0.3c0.8,1.7,0.8,4.6-0.1,6.1
			c-0.8,1.3-2.3,2.2-3.9,2.6c0.6-0.7,1.4-0.9,2-1.6c1.4-1.7,1.6-4.6,0.7-6.7c-0.4-0.8-1.2-1.8-1.8-2.4c-1.9-1.9-4.8-2.9-7.3-4.1
			c-1.3-0.6-3.1-1.4-3.6-2.7c-0.3-1,0-2.1,0.3-2.8c0,1.1,0,2.1,0.7,2.7c0.2,0.2,0.6,0.4,0.9,0.5c1,0.5,2.1,1,3.1,1.4
			c0.3-0.1-0.1-0.3-0.1-0.3c-0.7-0.8-1.4-1.6-1.3-3.2c0.7,1.2,1.6,2.1,2.8,2.6c2.2-2.6,5.1-5,7.3-7.6c0.1-0.1,0.5-0.4,0.3-0.5
			c-4.9-0.6-9.6,0.4-14.2,0.9c-4.7,0.5-9.4,1.1-13.9,1.7c-2.3,0.3-4.7,0.4-6.9,0.9c-2.1,0.4-4.1,1.1-6.2,1.6
			c-3.2,0.7-6.7,1.3-9.8,1.9c-1.1,0.2-2.2,0.5-3.3,0.6c-0.4,0.1-0.9-0.1-1.3,0.2c5.6,1.5,13.5,0.4,19.4,1.6c2,0.4,3.7,1.1,5.3,1.8
			c-2.1-0.3-4.2-0.7-6.6-1c-2.2-0.3-4.7-0.1-7.4-0.1c-4.2,0-8.7-0.4-12.2-1.2c-0.6-0.1-1.3-0.4-1.6-0.3c-0.3,0.1-0.8,0.8-1.2,1.2
			c-1.1,1.3-2.2,2.8-2.8,4.3c4.1,0,8.1,0.3,11.9,0.6c0.2,0,0.6-0.1,0.7,0.1c-4.4,0.1-9,0.5-13.3,0.5c-0.9,1.6-1.6,3.5-2.2,5.4
			c-1.7,5.8-3,12.4-2.4,20.1c7.3-1.2,14.5-2.6,22.1-3.5c2.5-0.3,5.1-0.7,7.8-0.7c-6.4,1.4-12.5,3.1-18.9,4.4
			c1.9,0.6,3.8,1.4,5.6,2.2c1.8,0.8,3.4,1.8,5,2.8c3.1,2.1,6.2,4.2,9.8,6c5.3,2.6,10.7,5,15.8,7.8c1.8,1,3.6,2.1,5.3,2.6
			c0.7,0.2,2,0.2,2.7,0.1c0.6-0.1,1.7-0.6,2.2-1.2c0.2-0.2,0.7-0.9,0.7-1.1c0.2-0.5,0.3-1.5,0.1-2c-0.1-0.2-0.6-0.6-0.9-0.9
			c-2-1.8-3.9-3.4-5.6-5.1c-0.3-0.3-0.7-0.6-0.7-0.9c2,1.5,4.4,3.3,7,5.1c1.2,0.9,2.3,1.8,3.5,2.6c1.4,0.8,4.4,2.1,6.3,1.2
			c0.9-0.4,1.8-1.3,2.5-2.2c0.7-0.8,1.4-2.2,1.4-3.3c0-0.6-0.1-1.1-0.5-1.4c-0.7,3.5-2.7,5.5-6.6,5.8c1.4-0.9,3.4-1.7,4.5-3.3
			c0.4-0.7,0.9-1.8,0.9-2.7c0-1.7-1.3-2.4-2.2-3.4c-1.7-1.7-3.6-3.6-5.1-5.3c1.9,1.5,4,3.3,6.3,5.1c1,0.8,2.2,1.7,3.1,2.6
			c1.4,1.3,2.7,2.6,4.9,2.8c3.2,0.3,4.6-0.6,6-2.2c1-1.1,1.5-2,1.1-3.7c-0.1-0.4-0.2-0.8-0.5-1.2c-0.1,1-0.8,1.6-1.3,2.2
			c-1.5,1.7-3.6,3-6.4,3.4c1.4-0.8,3.2-1.6,4.5-2.8c1.2-1.2,2.2-2.9,1.8-4.9c-0.1-0.7-1.1-1.6-1.7-2.2c-2-1.8-4-3.6-5.8-5.4
			c-1.3-1.3-2.5-2.5-3.5-3.9c-0.9-1.3-1.7-2.7-2.4-4.1C219.4,240.2,219,239.8,219.3,239.9C219.3,239.9,219.3,239.9,219.3,239.9z
			 M237.5,232.7c-5.3-4.5-10.3-9.2-14.8-14.4c0,0,0-0.1-0.1-0.1c-1.4,1.6-3,3.1-4.4,4.7c5.5,4.2,11.1,8.4,16,13.3
			c1.6,1.6,3.1,3.4,4.8,4.9c1.3-1.3,2.5-2.7,3.7-4.1C241.1,235.5,239.2,234.2,237.5,232.7z M301.7,272.6c0.1-0.6-0.7-1.2-1.2-1.7
			c-15.1-15.1-30.4-30.4-45.4-45.2c0-0.1-0.1-0.1-0.1,0.1c0,0.6-0.4,1.1-0.3,1.6c0.1,0.3,0.9,1,1.4,1.5c1.1,1.1,1.9,1.9,2.8,2.9
			c2.4,2.5,5,4.9,7.3,7.2c7.8,7.8,15.5,15.4,23.2,23.1c3.4,3.4,6.8,6.8,10.2,10.1c0.2,0.2,0.5,0.4,0.7,0.7c0.2,0.2,0.3,0.7,0.7,0.6
			C301.3,273.1,301.7,272.9,301.7,272.6z M247.7,237.9c-1.6,1.7-3.1,3.5-4.6,5.1c-0.5,0.6-1.1,1.1-1.5,1.8c0.1,0.2,0.3,0.3,0.4,0.6
			c1.1-1,2-2.2,3-3.3c2.5-2.8,5-5.6,7.2-8.8c0.6-0.8,1.2-1.7,1.4-2.4C252,233.6,249.8,235.7,247.7,237.9z M101,233.7
			c0.1,2.6,0.1,5.3,0.4,7.8c5.4-0.6,10.8-1.2,16.2-1.8c0.1-1,0.3-2,0.4-3C112.6,235.5,107,234.4,101,233.7z M365.2,233.8
			c-5.7,0.5-11.3,1.7-16.7,2.9c0.2,1,0.3,2,0.4,3c5.4,0.5,10.6,1.2,16,1.7C365,238.9,365.2,236.2,365.2,233.8z M101.6,243.5
			c0.5,5.6,1.3,10.8,2.4,15.8c5.3-1,10.4-2.1,15.7-3.1c-1.6-3.9-2.7-8.9-2.3-14.4C112,242.3,106.8,243,101.6,243.5z M349.3,241.8
			c-0.1,0-0.1,0.2,0,0.2c0.2,5.5-0.8,10.3-2.4,14.1c5.2,1,10.3,2,15.4,3.1c1-5,1.9-10.3,2.4-15.8C359.5,243,354.5,242.3,349.3,241.8
			z M170.1,257.2c-2.9-1.8-6.4-3.1-9.9-4.3c-0.6-0.2-1.3-0.6-1.8-0.6c-0.6-0.1-1.6,0-2.2,0.1c-1.8,0.1-3.5,0.7-5.3,0.9
			c-0.2,1-0.5,2.3-1.2,3c-0.5,0.6-1.5,1.2-2.4,1.6c-0.9,0.5-1.9,0.9-2.8,1.2c-4.4,1.1-9.3,1.4-14.6,1.1c-1.2-0.1-2.5-0.1-3.9,0
			c-1.3,0.1-2.8,0.3-3.7-0.1c-0.9-0.4-1.4-1.4-2-2c-5.3,1.1-10.7,2.1-15.9,3.3c0.6,2.9,1.4,5.6,2.2,8.3c16.2,0,33.6,0,50.1,0
			c1.2,0,2.5,0.2,3.3-0.1c0.5-0.2,1-0.9,1.5-1.4c3.5-3.5,6.6-6.6,10-10C171.1,257.8,170.6,257.5,170.1,257.2z M302.4,253.8
			c-3.9,0.1-7.7,0.1-11.1,0.9c2.3,2.5,5.1,4.9,7.6,7.4c1.8,1.8,3.8,3.8,5.7,5.7c0.6,0.6,1.3,1.6,2,1.8c0.8,0.2,2.1,0.1,3.2,0.1
			c16.7,0,33.4,0,49.9,0c0.7-2.8,1.6-5.5,2.2-8.4c-5.2-1.1-10.5-2.1-15.7-3.2c-0.6,0.8-1.1,1.7-2,2c-0.9,0.4-2.3,0.1-3.6,0.1
			c-1.3-0.1-2.7-0.1-3.9,0c-6.6,0.4-13.2,0-17.5-2.2c-1.7-0.9-2.9-1.8-3.4-3.8c-0.1-0.3,0-0.7-0.2-0.9
			C311.4,253.3,306.8,253.7,302.4,253.8z M237,261.3c-0.3,0.5-0.4,1.1-0.7,1.6c-0.3,0.5-0.7,0.9-1.1,1.4c-0.8,0.8-1.6,1.8-2.6,2.2
			c-2.3,1-6,0.7-8.2-0.3c-0.7,2.6-2.5,4.9-4.9,6c-0.8,0.4-1.9,0.7-3.2,0.6c-0.4,0.2-0.5,0.7-0.7,1c-0.9,1.3-2.3,2.2-4,2.5
			c-0.4,0.1-0.9-0.1-1.5,0.1c-0.4,0.1-1,0.8-1.4,1.3c-0.5,0.5-1,1-1.4,1.4c-2.7,2.8-5.5,5.8-8.1,8.4c-2.7,2.8-5.3,5.6-8.1,8.3
			c-0.9,0.9-2.1,2-3.2,2.2c-2.2,0.5-3.8-0.6-5.3-1.6c-2.8-1.9-5.1-3.8-7.4-5.9c-3.5-3.1-7.1-6.5-10-10c-1-1.2-2-2.4-3-3.7
			c-0.9-1.1-1.7-2.3-2.1-3.7c-0.1-0.2-0.1-0.5-0.3-0.6c-17.4,0-34.9,0-52.3,0c4.4,13.5,10.6,25.5,18.2,35.9
			c7.6,10.5,16.3,19.7,26.6,27.6c10.1,7.8,21.5,14.5,34.8,19.4c13.3,4.9,28.3,8.3,46,8.3c8.8,0,17.1-0.8,24.8-2.3
			c7.6-1.4,14.7-3.4,21.2-5.9c26.4-10,46.2-26.1,61.5-47c7.6-10.5,13.8-22.5,18.2-36c-17.4,0-34.8,0-52.1,0
			c-0.3,1.6-1.2,2.9-2.2,4.1c-2.8,3.6-5.5,6.9-8.9,10c-3.2,3-6.6,6-10.2,8.7c-1.2,0.9-2.5,1.9-3.9,2.4c-0.9,0.3-2.3,0.4-3.1,0.2
			c-2-0.6-3.7-2.7-5.1-4.2c-11-11-21.9-22.2-32.9-32.9C239.4,261.2,238.4,261.4,237,261.3z M175.7,261c-2.9,3-6.6,6.6-9.7,9.8
			c-0.4,0.4-1.2,1.1-1.2,1.6c0,0.6,0.5,0.9,0.8,1.3c3.8-4,7.9-7.7,11.6-11.8C176.7,261.6,176.3,261.2,175.7,261z M177.4,264.7
			c5.8,6.8,12.3,12.8,19.4,18.3c1.4-1.1,2.7-2.5,4-3.9c1-1,2-2,3-2.9c0.3-0.3,0.8-0.6,0.9-1c-3.7-0.9-6.7-2.9-9.7-4.4
			c-5.2-2.6-10.8-5.1-15.9-7.8C178.5,263.6,178,264.1,177.4,264.7z M207.5,273.8c1.2,0.2,2.4,0.5,3.6,0.5c1.8-0.1,2.9-1.2,3.4-2.6
			c-1.5-0.4-2.8-1.1-3.9-1.9C210.2,271.8,209,273,207.5,273.8z"/>
	</g>
	<g>
		<g>
			<path class="st57" d="M257.6,110.7c1.3-0.1,3.2,0.3,4.5,0.6c1.3,0.4,2.6,0.6,4,1c3.2,0.8,7,1.4,7.2,5c0.1,1.3-0.2,2.6-0.6,4.1
				c-1.6,6.1-3.1,12-4.8,18.5c-0.7,2.5-1.4,5.3-3.1,6.2c-1.3,0.7-3.6,0.3-4.9,0c-1.5-0.4-2.8-0.7-4.4-1.2c-2.9-0.7-6.4-1.2-7.5-3.6
				c-1.1-2.2,0.2-5.7,0.9-8.1c1.3-4.8,2.8-10.9,4-15.6c0.7-2.8,1.3-6.7,4.7-6.9C257.5,110.7,257.5,110.7,257.6,110.7z M256.8,116.3
				c-0.3,1.2-0.6,2.4-0.9,3.3c-1.5,5.7-2.8,11-4.3,16.7c-0.3,1.2-0.7,2.7-0.4,3.5c0.6,1.5,3.4,1.9,5.2,2.3c0.9,0.2,1.9,0.5,3,0.8
				c1.1,0.3,2.4,0.6,3.2,0.1c0.7-0.4,1.1-1.5,1.4-2.7c1.8-6.6,3.5-13.4,5.1-19.8c0.3-1.1,0.8-2.6,0.3-3.6c-0.5-1.2-3.1-1.5-4.6-1.9
				c-0.9-0.2-1.7-0.5-2.6-0.7c-1.1-0.3-2.4-0.8-3.7-0.5C257.4,114.1,257.1,115.3,256.8,116.3z"/>
			<path class="st57" d="M194.5,150.4c-0.3-0.9-0.6-1.8-0.9-2.8c1.1-0.3,2.1-0.7,3.2-1c-2.9-9-5.8-17.9-8.7-26.9
				c-1,0.1-2.2,0.7-3.3,0.9c-0.3-0.9-0.6-1.8-0.9-2.7c4-1.4,8.9-2.9,13.2-4.3c1.9-0.6,3.5-1.5,5.8-1.3c3,0.3,3.5,3.8,4.4,6.6
				c0.4,1.1,0.6,2,0.9,3.1c0.4,1.2,0.9,2.7,0.4,3.9c-0.4,0.9-1,1.4-1.9,1.8c0,0.1-0.1,0.1-0.1,0.1c4.5-0.5,4.8,3.3,6,6.8
				c0.7,2.1,1.4,3.6,1.7,5.3c0.8,4.3-3,4.9-6,5.9C204,147.4,199,149,194.5,150.4z M200.6,128.2c1.4-0.5,4.4-1,4.9-2.3
				c0.3-0.8-0.1-2.1-0.3-2.9c-0.6-1.9-1.1-3.4-1.7-5.2c-0.4-1.4-1-2.5-2.6-2.2c-1.5,0.3-3.1,0.9-4.7,1.4c-1.6,0.5-3.2,1-4.7,1.5
				c1.2,3.9,2.5,7.6,3.7,11.5C197.2,129.4,198.7,128.9,200.6,128.2z M208.8,142.7c0.9-0.3,2.1-0.8,2.2-1.6c0.2-0.9-0.4-2.2-0.7-3
				c-0.7-2.2-1.1-3.6-1.8-5.7c-0.5-1.5-1.1-2.7-2.7-2.6c-1.8,0.1-3.4,0.8-4.9,1.4c-1.6,0.5-3.1,1-4.8,1.6c1.3,4.3,2.7,8.6,4.1,12.7
				C203,144.5,206,143.7,208.8,142.7z"/>
			<path class="st57" d="M324,147.7c-0.7,0.7-1.5,1.2-2.2,1.8c-0.5-0.4-1.1-1.3-1.6-2c-0.1-0.1-0.5-0.7-0.5-0.7
				c-0.1,0-0.9,0.7-1.3,0.9c-6.1,4.8-12.9,10-18.8,14.7c10.2-2.3,20.3-4.6,30.5-7c0.7,0.7,1.4,1.6,2.2,2.7c0.5,0.6,1,1.3,1.6,2.1
				c0.1,0.2,0.5,0.7,0.5,0.7c0,0.2-0.9,0.8-1.1,0.9c-0.5,0.4-0.8,0.6-1.2,0.9c-0.8-0.7-1.3-1.7-2.1-2.5
				c-7.5,5.7-14.9,11.6-22.3,17.3c0.6,0.9,1.3,1.7,2,2.6c-0.5,0.5-1,0.8-1.7,1.4c-0.1,0.1-0.5,0.5-0.5,0.5c-0.2,0-0.6-0.7-0.8-0.9
				c-0.7-0.9-1.6-2.1-2.3-2.9c-1.2-1.5-2.1-2.8-3-4c0.8-0.5,1.4-1.2,2.3-1.7c0.7,0.9,1.4,1.8,2.1,2.7c6.7-5.1,13.4-10.3,20-15.6
				c-10.2,2.2-20.4,4.4-30.5,6.8c-0.9-0.8-1.5-1.9-2.3-2.8c7.6-6.1,16-12.4,24-18.6c0.3-0.2,0.7-0.6,0.7-0.6c0-0.2-0.8-1-1-1.3
				c-0.4-0.5-0.8-1-0.9-1.4c0.8-0.5,1.5-1.1,2.2-1.7c0,0,0.1,0,0.1,0C320,142.7,322,145.2,324,147.7z"/>
			<path class="st57" d="M151.6,150.2c-0.6,0.9-1.3,1.7-2,2.4c-1.5-1.1-2.9-2.3-4.3-3.5c-2,2.3-3.8,4.5-5.8,6.9
				c-0.6,0.7-1.5,1.7-1.4,2.8c0.1,0.9,1.4,1.8,2.2,2.5c5.2,4.4,10.2,8.5,15.5,12.9c0.8,0.6,1.8,1.8,2.9,1.8c1,0,1.9-1.1,2.4-1.8
				c2-2.5,3.7-4.4,5.8-6.9c-1.4-1.3-2.8-2.4-4.3-3.6c0.6-0.9,1.4-1.7,2-2.6c2.2,1.8,4.3,3.7,6.6,5.4c-2.9,3.4-5.5,6.9-8.6,10.4
				c-0.9,1.1-2.3,2.4-3.7,2.6c-0.4,0.1-1.2,0-1.6-0.1c-2.2-0.5-4.1-2.6-5.8-4c-4.4-3.7-8.9-7.4-13.3-11c-1.6-1.3-3.7-2.6-3.8-5.3
				c0-1.7,0.9-3.1,1.9-4.3c1.9-2.4,3.6-4.4,5.6-6.6c1-1.2,1.9-2.4,2.9-3.5C147.3,146.6,149.4,148.4,151.6,150.2z"/>
			<path class="st57" d="M136.5,284.2c-0.8,0.5-1.8,0.9-2.6,1.4c-0.3-0.3-0.4-0.6-0.5-1.1c0.6-0.2,1.1-0.5,1.7-0.8
				c-0.3-0.6-0.6-1.2-0.9-1.9c-0.3-0.5-0.6-1.6-1.2-1.7c-0.6-0.1-1.6,0.6-2.2,0.9c-1.5,0.8-2.8,1.4-4.3,2.1
				c-0.7,0.4-1.5,0.7-1.9,1.3c0.4,1.4,1.1,2.4,1.7,3.7c0.6-0.2,1.1-0.6,1.8-0.8c0.1,0.3,0.4,0.6,0.5,1c-0.9,0.4-1.7,0.9-2.6,1.3
				c-0.4-0.7-0.8-1.6-1.2-2.4c-0.4-0.8-1-1.6-1.2-2.4c-0.4-1.4,0.7-1.8,1.9-2.4c1.5-0.8,3-1.5,4.3-2.2c0.8-0.4,1.8-1,2.9-1.3
				c0.2,0,0.8,0.1,0.9,0.2c0.8,0.4,1.3,1.8,1.6,2.4C135.6,282.4,136,283.3,136.5,284.2z"/>
			<path class="st57" d="M332.1,281c-0.1,0.4-0.3,0.6-0.5,0.9c3.1,1.9,6.3,3.5,9.5,5.3c-0.1,0.5-0.4,0.7-0.5,1.2
				c-3.6-0.3-7.2-0.4-10.8-0.7c0.4,0.4,1.1,0.7,1.8,1.1c1.9,1,3.9,2.1,5.8,3.2c0.3-0.3,0.5-0.7,0.6-1.1c0.3,0.1,0.6,0.3,0.9,0.5
				c-0.5,1.1-1.1,2-1.6,3c-0.4-0.1-0.6-0.3-0.9-0.5c0.2-0.3,0.3-0.7,0.5-0.9c-2.8-1.7-5.8-3.2-8.6-4.8c-0.3,0.3-0.4,0.7-0.6,1
				c-0.3-0.2-0.6-0.3-0.9-0.5c0.4-0.8,0.8-1.5,1.2-2.2c3.5,0.3,7.2,0.5,10.7,0.7c-0.2-0.3-0.5-0.4-0.8-0.5c-2.1-1.2-4.6-2.5-6.7-3.7
				c-0.3,0.3-0.4,0.7-0.7,1.1c-0.3-0.2-0.6-0.3-0.9-0.5c0.5-1.1,1.1-2,1.6-3C331.5,280.6,331.8,280.8,332.1,281z"/>
			<path class="st57" d="M136.4,295.1c0.7,1.4-0.6,1.9-1.6,2.5c-0.8,0.5-1.5,0.9-2,1.3c0.2,0.3,0.4,0.6,0.5,0.9
				c-0.1,0.4-0.6,0.3-0.7,0.6c-0.7-0.9-1.3-1.9-1.9-3c0.3-0.1,0.5-0.4,0.9-0.5c0.2,0.3,0.3,0.6,0.5,0.9c0.8-0.4,1.7-1,2.6-1.6
				c0.4-0.3,1-0.5,1-1c0.1-0.6-0.5-1.2-0.9-1.8c-0.4-0.6-0.6-1.1-1-1.6c-1.3,0.7-2.5,1.6-3.9,2.4c0.1,0.4,0.4,0.6,0.5,1
				c-0.4,0.1-0.5,0.4-0.9,0.5c-0.6-1-1.2-2-1.8-2.8c0.2-0.3,0.6-0.3,0.8-0.6c0.3,0.3,0.4,0.6,0.6,0.9c2.9-1.7,5.5-3.5,8.4-5.2
				c-0.2-0.3-0.4-0.7-0.6-0.9c0.3-0.2,0.5-0.4,0.9-0.5c0.7,1.1,1.8,2.9,2.7,4.3c0.4,0.6,1,1.2,0.8,2.1c-0.2,0.7-1.4,1.2-2.1,1.6
				C138.3,295.2,137.4,296.2,136.4,295.1z M135.7,293c0.3,0.4,0.7,1.5,1.3,1.5c0.5,0,1.2-0.6,1.6-0.9c0.4-0.3,1.3-0.6,1.4-1.1
				c0.1-0.6-0.5-1.3-0.8-1.8c-0.4-0.6-0.7-1-1-1.6c0,0,0-0.1-0.1-0.1c-1.1,0.8-2.4,1.5-3.5,2.3C135.1,292,135.3,292.4,135.7,293z"/>
			<path class="st57" d="M260.6,293.3c0,0.3-0.4,0.6-0.6,0.9c-3.2,3.7-6.6,7.5-9.9,11.2c-1,1.2-2.5,2.6-2.5,4.7
				c0,3.1,3.4,2.8,5.3,1.6c1.3-0.8,2.4-2,3.6-3c1.1-1,2.2-2.2,3.3-3.2c2.4-2.2,4.7-4.4,6.8-6.4c-0.1,0.4-0.4,0.7-0.7,1
				c-1.8,2.3-3.7,4.7-5.6,7c-2.1,2.6-4.2,5.3-6.8,7.6c-1.3,1.1-2.7,2-4.5,2.8c-1.6,0.7-3.4,1.1-5,2.2c-1.4,0.9-2.5,2.1-3.7,3.5
				c-0.8,0.8-1.7,1.8-2.6,2.8c-0.2,0.2-0.9,0.8-0.9,0.9c0,0.2,1,1.1,1.3,1.4c5.1,4.6,9.9,9.4,14.8,14c0.8,0.8,1.7,1.7,2.6,2.6
				c0.9,0.9,2,1.7,2.4,2.8c0.9,2.4-1,4.3-3.1,4c-1.2-0.2-2.3-1.3-3.1-2.2c-5.9-6.5-11.9-12.6-18-19.1c-5.7,6-11.8,12.3-17.6,18.6
				c-0.8,0.9-2.1,2.5-3.7,2.6c-1.5,0-2.7-1-2.9-2c-0.1-0.5-0.1-1.6,0.1-2.2c0.4-1,1.6-1.9,2.4-2.8c2.6-2.6,5.3-5,7.9-7.5
				c2.7-2.6,5.1-5,7.9-7.6c0.4-0.3,0.7-0.8,1.3-1.3c0.3-0.3,1.3-1,1.4-1.2c0,0-0.6-0.7-0.9-0.9c-0.4-0.4-0.6-0.7-0.9-0.9
				c-1.9-2-3.8-3.4-5.9-5c-2.8-2.2-5.3-4.3-7.8-6.7c-2.5-2.5-4.6-4.6-6.6-7.9c-1.3-2.2-2.5-4.6-3-7.9c-0.3-1.4-0.2-2.4,0.7-2.4
				c0.8-0.1,1.4,0.9,2,1.5c1.7,1.8,3.5,3.7,5.1,5.5c2.4,2.6,4.6,4.8,6.8,7.2c4.6,5,8.7,10,13.5,14.5c1.4-1.1,2.5-2.3,3.7-3.5
				c1.2-1.2,2.5-2.3,3.4-3.8c1-1.6,1.4-3.4,2-5.1c0.7-1.7,1.5-3.3,2.6-4.6c1.1-1.3,2.4-2.4,3.6-3.6
				C252.6,299.7,256.7,296.7,260.6,293.3z"/>
			<path class="st57" d="M323.1,294.1c0.9,0.5,1.6,1.2,2.4,1.8c-0.1,0.4-0.5,0.6-0.6,0.9c-0.6-0.3-1.1-0.8-1.6-1.2
				c-0.6,0.7-1.2,1.5-1.8,2.4c-0.1,0.1-0.6,0.7-0.6,0.7c0,0.2,0.6,0.5,0.9,0.7c0.9,0.6,1.8,1.4,2.6,2c0.8-1,1.5-2,2.2-3
				c0.3,0.1,0.5,0.4,0.8,0.5c-0.6,1.1-1.5,2-2.2,3c1.2,0.9,2.4,1.8,3.6,2.7c0.8-1.1,1.6-2.2,2.4-3.2c-0.5-0.4-1-0.8-1.6-1.2
				c0.2-0.3,0.4-0.7,0.7-0.9c0.8,0.5,1.6,1.1,2.4,1.7c-1,1.6-2.6,3.6-3.9,5.4c-0.1,0.2-0.5,0.7-0.5,0.7c-0.1,0-0.7-0.6-0.8-0.6
				c0.2-0.3,0.4-0.6,0.6-0.9c-2.6-2-5.3-3.9-7.9-5.9c-0.3,0.2-0.5,0.5-0.7,0.9c0-0.1-0.9-0.4-0.9-0.6c0-0.1,1-1.3,1.1-1.5
				C320.9,297.2,322.2,295.4,323.1,294.1z"/>
			<path class="st57" d="M147.1,300.1c-0.4,0.8-1.1,1.5-1.7,2.2c-1.7,2.2-3.4,4.4-5.1,6.6c0.2,0.3,0.4,0.5,0.6,0.8
				c-0.2,0.3-0.5,0.5-0.8,0.7c-0.6-0.9-1.3-1.8-2-2.6c0.2-0.3,0.5-0.5,0.8-0.7c0.2,0.3,0.4,0.6,0.7,0.8c0.6-0.8,1.3-1.6,1.9-2.4
				c-0.6-1.1-1.5-1.8-2.1-2.8c-1,0.4-1.9,0.9-3,1.2c0.2,0.4,0.5,0.6,0.7,1c-0.3,0.1-0.5,0.4-0.8,0.5c-0.7-0.9-1.5-1.8-2.1-2.8
				c0.3-0.1,0.5-0.4,0.7-0.5c0.3,0.2,0.4,0.6,0.7,0.8c3.4-1.4,6.9-2.8,10.2-4.3C146.4,298.9,146.6,299.6,147.1,300.1z M140.3,302.2
				c0.6,0.8,1.2,1.7,1.9,2.4c1-1.4,2.2-2.9,3.2-4.2c0.1-0.2,0.4-0.4,0.3-0.6C143.9,300.6,142.1,301.4,140.3,302.2z"/>
			<path class="st57" d="M155.4,309.5c-0.6,0.8-1.4,1.4-2.1,2.1c-0.2-0.3-0.5-0.5-0.7-0.8c0.5-0.4,0.9-0.9,1.4-1.2
				c-0.5-0.7-1.1-1.3-1.8-2c-0.1-0.1-0.5-0.7-0.6-0.7c-0.1,0-0.7,0.6-0.8,0.7c-0.8,0.7-1.6,1.5-2.4,2.2c0.7,0.9,1.6,1.8,2.4,2.6
				c-0.2,0.3-0.4,0.6-0.7,0.7c-0.5-0.7-1.2-1.3-1.8-2c-0.1-0.1-0.5-0.7-0.5-0.7c-0.1,0-0.7,0.6-0.9,0.7c-0.8,0.8-1.6,1.6-2.4,2.3
				c0.2,0.3,0.4,0.6,0.7,0.8c-0.1,0-0.5,0.7-0.7,0.7c-0.2,0-1.1-1.1-1.3-1.3c-0.5-0.5-0.9-1-1.2-1.4c0.2,0.1,0.5-0.6,0.7-0.6
				c0.2,0,0.6,0.8,0.8,0.8c0.2,0,0.7-0.7,0.9-0.9c1.9-1.7,3.5-3.2,5.4-5c0.2-0.2,0.9-0.6,0.9-0.8c0-0.3-0.7-0.6-0.7-0.8
				c0-0.4,0.8-0.5,0.7-0.7C152.3,306.1,153.8,307.9,155.4,309.5z"/>
			<path class="st57" d="M314.4,306.6c2.3,2.3,4.8,4.5,7,6.9c0.4-0.2,0.6-0.5,0.8-0.7c0.3,0.2,0.6,0.4,0.7,0.7
				c-0.8,0.7-1.6,1.6-2.3,2.4c-0.3-0.1-0.5-0.4-0.8-0.6c0.2-0.3,0.5-0.5,0.7-0.8c-1-1.2-2.3-2.2-3.3-3.3c-0.7,0.8-1.5,1.5-2.3,2.4
				c-0.1,0.1-0.7,0.7-0.7,0.7c0,0.1,0.7,0.7,0.8,0.9c0.8,0.8,1.8,1.6,2.5,2.4c0.3,0.1,0.6-0.7,0.8-0.7c0.3,0,0.4,0.5,0.7,0.7
				c-0.7,0.9-1.6,1.6-2.3,2.5c-0.3-0.2-0.6-0.4-0.7-0.7c0.3-0.2,0.4-0.5,0.7-0.7c-1.5-1.6-3.5-3.4-5.3-5.2c-0.2-0.2-0.5-0.5-0.9-0.9
				c-0.2-0.2-0.9-0.8-0.9-0.8c-0.2,0-0.6,0.7-0.7,0.7c-0.3,0-0.6-0.5-0.7-0.7c0.8-0.8,1.5-1.6,2.3-2.4c0.1,0.1,0.8,0.4,0.7,0.7
				c0,0.1-0.7,0.5-0.7,0.7c0,0.3,1.4,1.3,1.6,1.5c0.6,0.6,0.9,1,1.5,1.5c0.7-0.7,1.5-1.5,2.3-2.4c0.2-0.2,0.7-0.6,0.7-0.7
				c0-0.1-0.7-0.7-0.7-0.7c-0.8-0.8-1.5-1.5-2.2-2.2c-0.4,0.2-0.6,0.5-0.8,0.7c0-0.1-0.7-0.5-0.7-0.7c0-0.1,0.9-1.1,1.1-1.2
				c0.5-0.6,1-0.8,1.3-1.3c0.1,0.1,0.7,0.6,0.7,0.7C315.2,306.1,314.6,306.2,314.4,306.6z"/>
			<path class="st57" d="M162.5,316c-0.7,1-1.6,1.7-2.3,2.7c-0.1-0.1-0.9-0.5-0.9-0.7c0-0.2,0.6-0.7,0.9-0.9
				c0.4-0.4,0.6-0.8,0.8-0.9c-0.4-0.6-1-0.9-1.5-1.4c-2.2,2.4-4.4,4.8-6.6,7.2c0.3,0.4,0.7,0.7,1.1,1c-0.2,0.2-0.4,0.6-0.7,0.7
				c-1-0.9-2-1.8-3-2.8c0.1-0.3,0.4-0.5,0.6-0.7c0.5,0.2,0.7,0.7,1.2,0.9c1.7-1.8,3.8-4.3,5.8-6.4c0.1-0.1,0.8-0.8,0.8-0.9
				c0-0.2-0.6-0.6-0.7-0.7c-0.3-0.3-0.6-0.5-0.8-0.7c-0.2,0.2-0.5,0.6-0.9,0.9c-0.3,0.3-0.6,0.9-0.8,0.9c-0.2,0-0.6-0.6-0.8-0.7
				c0.7-1,1.6-1.8,2.4-2.7C158.8,312.6,160.6,314.3,162.5,316z"/>
			<path class="st57" d="M305,318.5c-0.4,0.1-0.5,0.5-0.9,0.6c-0.4-0.5-0.7-1-1.2-1.4c-0.6,0.3-1.1,0.8-1.6,1.3
				c-0.4,0.4-1.4,0.8-1.5,1.4c-0.1,0.7,0.8,1.5,1.3,2c1.1,1.3,1.8,2.3,2.9,3.7c0.5,0.6,1.1,1.6,1.6,1.7c0.5,0.1,1.5-0.8,1.8-1.1
				c0.5-0.4,0.9-0.8,1.6-1.3c-0.3-0.6-0.7-1-1.2-1.5c0.3-0.3,0.6-0.6,0.9-0.7c0.5,0.9,1.3,1.5,1.8,2.4c-1.1,0.8-2.3,1.8-3.5,2.7
				c-0.7,0.6-1.8,1.2-2.7,0.3c-0.6-0.5-0.9-1.2-1.4-1.8c-0.9-1.1-2-2.4-2.9-3.6c-0.4-0.5-1.1-1.2-1.4-1.8c-0.6-1.3,0.6-2.1,1.3-2.7
				c1-0.8,2.2-1.8,3.1-2.5C303.8,316.8,304.4,317.6,305,318.5z"/>
			<path class="st57" d="M169.2,321.3c0.9,0.5,1.9,1.3,3,2c0.8,0.5,2.6,1.3,2.8,2.2c0.2,1-0.6,1.7-1.2,2.6c-0.5,0.7-1,2.1-2.2,1.6
				c0.1,0.3,0.4,0.6,0.3,1.3c-0.1,0.7-0.9,1.5-1.3,2.2c-0.5,0.8-1.1,2.1-2.4,1.7c-0.5-0.1-0.9-0.6-1.4-0.9c-1.3-0.8-2.8-1.9-4.1-2.7
				c0.1-0.4,0.4-0.6,0.5-0.9c0.4,0.2,0.6,0.4,0.9,0.6c1.9-2.6,3.6-5.4,5.4-8.1c-0.2-0.3-0.6-0.5-0.9-0.7
				C168.9,321.9,169.1,321.7,169.2,321.3z M170,328c0.4,0.2,1.2,1,1.8,0.9c0.5-0.1,0.9-1,1.2-1.4c0.3-0.4,1-1,0.9-1.7
				c-0.1-0.4-0.8-0.7-1.4-1.2c-0.7-0.4-1.2-0.9-1.7-1.1c-0.7,1.2-1.5,2.3-2.2,3.5C169,327.3,169.4,327.6,170,328z M166.9,332.8
				c0.4,0.3,1.3,1,1.8,0.9c0.5-0.1,1-1.3,1.2-1.6c0.3-0.5,1.1-1.2,1-1.8c-0.1-0.5-1-1-1.4-1.3c-0.7-0.5-1.3-0.8-1.8-1.1
				c-0.8,1.3-1.7,2.5-2.5,3.9C165.9,332,166.3,332.4,166.9,332.8z"/>
			<path class="st57" d="M294.5,327c-0.2,0.3-0.6,0.4-0.9,0.6c-0.4-0.7-0.9-1.4-1.3-2.2c-0.7,0.3-1.1,0.8-1.8,1
				c1.7,2.9,3.4,5.6,5.1,8.5c0.5-0.2,0.8-0.6,1.4-0.7c0.1,0.3,0.4,0.5,0.5,0.9c-1.2,0.7-2.4,1.5-3.6,2.2c-0.3-0.2-0.4-0.5-0.5-0.9
				c0.4-0.2,0.7-0.5,1.2-0.7c-1.6-2.9-3.4-5.6-5.1-8.5c-0.7,0.2-1.2,0.7-1.8,1c0.4,0.8,0.9,1.4,1.3,2.2c-0.1,0.4-0.6,0.4-0.8,0.7
				c-0.7-0.9-1.2-2.1-2-3c2-1.3,4.2-2.6,6.2-3.9c0.1,0,0.1-0.2,0.3-0.1C293.3,325,293.9,326,294.5,327z"/>
			<path class="st57" d="M184.9,330.7c-0.4,0.9-0.9,1.7-1.4,2.6c-0.3-0.2-0.7-0.3-1-0.5c0.3-0.6,0.6-1.1,0.9-1.7
				c-1.1-0.7-2.3-1.3-3.5-1.9c-0.7,1.2-1.3,2.5-2,3.7c1,0.6,2.1,1.2,3.2,1.8c-0.1,0.4-0.3,0.6-0.4,0.9c-1.2-0.5-2.2-1.1-3.3-1.8
				c-0.7,1.3-1.4,2.6-2.1,3.9c1.1,0.7,2.3,1.3,3.5,1.9c0.4-0.5,0.6-1.1,0.9-1.7c0.4,0.2,0.7,0.4,1,0.5c-0.4,0.9-0.9,1.7-1.4,2.6
				c-2.2-1.2-4.4-2.4-6.6-3.5c0.1-0.4,0.3-0.7,0.5-0.9c0.3,0.2,0.6,0.3,0.9,0.5c0.5-0.6,0.8-1.4,1.2-2.1c1.1-2.1,2.4-4.3,3.5-6.5
				c-0.3-0.2-0.7-0.3-0.9-0.5c0.2-0.3,0.3-0.6,0.5-0.9C180.5,328.3,182.7,329.6,184.9,330.7z"/>
			<path class="st57" d="M281.1,331.8c-0.4,0-0.6,0.3-0.9,0.4c1.4,3,2.8,5.9,4.2,8.9c0.3-0.2,0.7-0.3,1.1-0.5
				c0.1,0.4,0.3,0.6,0.4,0.9c-1.1,0.4-2,1-3.2,1.4c-0.2-0.2-0.2-0.6-0.4-0.8c0.2-0.3,0.6-0.3,0.9-0.5c-1.3-3.1-2.8-6-4.2-8.9
				c-0.3,0.2-0.6,0.3-0.9,0.5c-0.2-0.2-0.4-0.6-0.5-0.9c1-0.5,2.1-0.9,3-1.5C280.8,331,281,331.4,281.1,331.8z"/>
			<path class="st57" d="M194.1,334.8c-0.3,1-0.8,1.8-1.1,2.7c-0.4-0.1-0.7-0.3-1.1-0.4c0.1-0.7,0.5-1.1,0.7-1.8
				c-1.1-0.6-2.4-1.1-3.7-1.6c-0.6,1.2-1.1,2.6-1.7,3.9c1.1,0.6,2.3,1,3.5,1.5c-0.1,0.4-0.3,0.6-0.3,0.9c-1.2-0.4-2.3-1-3.5-1.4
				c-0.7,1.3-1.2,2.7-1.8,4.1c1.1,0.6,2.5,1,3.6,1.6c0.4-0.5,0.5-1.2,0.8-1.8c0.4,0.1,0.7,0.3,1.1,0.4c-0.3,1-0.8,1.8-1.1,2.7
				c-2.4-0.8-4.6-2-7-2.8c0.1-0.4,0.2-0.7,0.4-0.9c0.4,0,0.6,0.3,0.9,0.3c1.4-2.9,2.5-6,3.9-8.9c-0.3-0.2-0.7-0.3-1-0.5
				c0.1-0.3,0.3-0.6,0.4-0.9C189.6,332.8,191.8,333.8,194.1,334.8z"/>
			<path class="st57" d="M272.2,335.7c-0.4,0.1-0.7,0.2-1,0.3c-0.6,1.7-1.1,3.4-1.7,5.1c1.1-0.1,1.9-1,3-0.7c0.7,0.2,1,1.5,1.3,2.2
				c0.3,1,0.7,1.9,0.9,2.6c0.3-0.1,0.6-0.3,1.1-0.3c0,0.4,0.3,0.5,0.3,0.9c-1,0.4-2.2,0.7-3.2,1.1c-0.3-0.2-0.3-0.6-0.4-1
				c0.4-0.1,0.7-0.2,1-0.3c-0.5-1.4-0.8-3-1.6-4.1c-1.3,0-2.4,0.8-3.6,1c0.5,1.5,1,2.9,1.5,4.3c0.4-0.1,0.7-0.3,1.2-0.4
				c0.1,0.3,0.3,0.6,0.3,1c-1.2,0.3-2.2,0.8-3.4,1.2c-0.1-0.4-0.3-0.6-0.3-1c0.3-0.1,0.7-0.2,0.9-0.3c-1-3.2-2.1-6.2-3.2-9.3
				c-0.5,0-0.7,0.2-1.1,0.3c-0.1-0.3-0.2-0.6-0.3-0.9c1-0.5,2.2-0.9,3.4-1.2c0.1,0.3,0.2,0.6,0.3,0.9c-0.3,0.3-0.7,0.3-1.2,0.5
				c0.5,1.5,1.1,3,1.6,4.5c0.8-1.8,1.2-3.8,1.9-5.7c-0.4,0.1-0.7,0.2-1,0.3c-0.2-0.3-0.3-0.7-0.4-1c1.1-0.4,2.2-0.7,3.2-1.1
				C272,334.9,272.1,335.4,272.2,335.7z"/>
			<path class="st57" d="M201.1,343c0.1,0.3,0.6,0.4,0.7,0.8c0.2,0.6-0.3,1.5-0.5,2.3c-0.3,0.8-0.5,1.6-0.7,2.1
				c0.3,0.2,0.7,0.3,1.1,0.3c0,0.4-0.2,0.6-0.3,1c-1.2-0.3-2.2-0.7-3.4-1c0.1-0.4,0.2-0.7,0.3-1c0.3,0.2,0.7,0.2,1,0.3
				c0.3-1,1-2.4,1.2-3.5c0.2-1.7-2.7-1.4-3.7-2.1c-0.5,1.4-0.9,2.9-1.4,4.3c0.3,0.2,0.6,0.3,1,0.3c0,0.4-0.2,0.7-0.3,1
				c-1.1-0.3-2.2-0.7-3.3-1c0.1-0.3,0.2-0.7,0.3-0.9c0.4,0,0.6,0.2,1,0.3c1.1-3,1.9-6.2,3-9.3c-0.3-0.2-0.8-0.2-1.1-0.4
				c0.1-0.3,0.2-0.6,0.3-0.9c0.7,0.2,2,0.6,3.2,0.9c1.1,0.3,2.3,0.6,3,0.9c1.4,0.7,0.6,2.1,0.2,3.5C202.5,342,202.4,343.2,201.1,343
				z M198.4,337.4c-0.4,1.3-0.8,2.6-1.2,3.9c0.5,0.2,1.1,0.3,1.8,0.5c0.6,0.2,1.3,0.6,1.9,0.5c0.5-0.1,0.7-1.1,0.8-1.6
				c0.2-0.7,0.4-1.3,0.5-2C201.3,337.9,199.7,337.8,198.4,337.4z"/>
			<path class="st57" d="M235.6,348.5c0.7-0.4,1.1-1,1.8-1.4c0.3,0.2,0.6,0.5,0.7,0.8c-0.6,0.4-1.1,1-1.7,1.4
				c0.6,0.9,1.4,1.7,2.1,2.5c-0.2,0.3-0.5,0.5-0.7,0.7c-0.8-0.7-1.5-1.6-2.2-2.4c-0.5,0.5-1.1,0.9-1.7,1.4c-0.5,0.4-1,1.3-1.9,1.2
				c-0.3,0-0.8-0.4-1-0.6c-0.4-0.4-1.8-1.8-2-2.6c-0.2-1,0.9-1.6,1.5-2.2c0.5-0.5,1-0.9,1.5-1.3c-0.5-0.6-1-1.1-1.4-1.6
				c0.1-0.6-0.1-1.1-0.1-1.6c0-0.4,0-1.2,0.3-1.6c0.3-0.5,1.2-0.5,1.8-0.5c1.3,0,2.3,0,2.5,1.6c0.1,0.7,0.2,1.6,0,2.2
				c-0.1,0.4-0.8,0.8-1.1,1.1c0,0-0.4,0.3-0.4,0.3c0,0.3,0.9,1,1.1,1.2C235,347.8,235.3,348.2,235.6,348.5z M231.7,342
				c-0.2,0.4-0.1,1.2-0.1,1.8c0.4,0.5,0.8,1,1.3,1.4c0.2-0.4,1-0.6,1.2-1.2c0.2-0.6,0-1.5-0.1-2.1
				C233.4,341.7,232.2,341.8,231.7,342z M232.6,346.8c-0.4,0.4-0.8,0.7-1.4,1.2c-0.4,0.4-1.1,0.7-1.1,1.2c0,0.2,0.2,0.5,0.3,0.7
				c0.3,0.4,1.1,1.5,1.6,1.6c0.4,0,1.1-0.8,1.4-1c0.5-0.5,0.9-0.8,1.3-1.2C234.1,348.5,233.4,347.6,232.6,346.8z"/>
		</g>
	</g>
	<g>
		<g>
			<g>
				<g>
					<rect x="60.3" y="64" transform="matrix(-0.7117 -0.7025 0.7025 -0.7117 69.0287 158.3799)" width="13.3" height="2"/>
				</g>
				<g>
					<rect x="69.4" y="88.4" transform="matrix(-0.7096 -0.7046 0.7046 -0.7096 93.5706 217.3973)" width="44.4" height="2"/>
				</g>
			</g>
			<g>
				<g>
					<rect x="398.6" y="59" transform="matrix(-0.7025 -0.7117 0.7117 -0.7025 633.5574 396.2099)" width="2" height="13.3"/>
				</g>
				<g>
					<rect x="374" y="67.9" transform="matrix(-0.7045 -0.7097 0.7097 -0.7045 575.2863 419.7006)" width="2" height="44.4"/>
				</g>
			</g>
		</g>
		<g>
			<g>
				<g>
					<rect x="60.1" y="397.3" transform="matrix(-0.7026 -0.7116 0.7116 -0.7026 -183.5611 731.2858)" width="2" height="13.3"/>
				</g>
				<g>
					<rect x="84.6" y="357.4" transform="matrix(-0.7045 -0.7097 0.7097 -0.7045 -123.4771 707.8118)" width="2" height="44.4"/>
				</g>
			</g>
			<g>
				<g>
					<rect x="392.9" y="402.3" transform="matrix(-0.7117 -0.7025 0.7025 -0.7117 400.6396 971.1034)" width="13.3" height="2"/>
				</g>
				<g>
					<rect x="352.8" y="378" transform="matrix(-0.7097 -0.7045 0.7045 -0.7097 374.1699 912.0918)" width="44.4" height="2"/>
				</g>
			</g>
		</g>
		<g>
			<g>
				<rect x="17" y="227.8" width="10.6" height="2"/>
			</g>
			<g>
				<rect x="38.2" y="227.8" width="13.9" height="2"/>
			</g>
		</g>
		<g>
			<g>
				<rect x="411.6" y="233.2" width="10.6" height="2"/>
			</g>
			<g>
				<rect x="432.8" y="233.2" width="13.9" height="2"/>
			</g>
		</g>
		<g>
			<g>
				<rect x="232.8" y="435.8" width="2" height="10.6"/>
			</g>
			<g>
				<rect x="232.8" y="411.3" width="2" height="13.9"/>
			</g>
		</g>
		<g>
			<g>
				<rect x="232.2" y="41.2" width="2" height="10.6"/>
			</g>
			<g>
				<rect x="232.2" y="16.6" width="2" height="13.9"/>
			</g>
		</g>
	</g>
	<g>
		<path class="st57" d="M235.2,280.9c-0.6-0.4-1-1-1.7-1.3c-0.7,0.3-1.2,0.8-1.7,1.3c-0.5-0.8-0.9-1.7-1.4-2.6
			c-0.2-0.3-0.5-0.6-0.5-0.8c0-0.3,0.3-1.2,0.5-1.8c0.7-1.6,1.9-3.3,3-4.2c1.1,0.7,2.3,2.6,3,4.2c0.2,0.5,0.6,1.3,0.6,1.7
			c0,0.5-0.7,1.2-0.9,1.7C235.8,279.8,235.5,280.3,235.2,280.9z"/>
		<path class="st57" d="M243.2,283.7c-1.6,0.7-2.9,1.8-4.3,2.8c-0.8-1.6-1.6-3.2-2.7-4.5c1-2.1,2.3-3.9,4-5.3
			C241.7,278.5,242.7,280.8,243.2,283.7z"/>
		<path class="st57" d="M230.8,281.8c-1,1.5-1.9,3-2.7,4.7c-1.4-1-2.7-2-4.3-2.8c0.5-2.8,1.5-5.2,3-7c0,0,0.1,0,0.1,0
			C228.6,278.1,229.7,279.9,230.8,281.8z"/>
		<path class="st57" d="M148.4,276.8c0.5,0,0.9,0,1.4,0c2.8,4.7,5.8,9,9.1,13.3c0.7,0.9,1.6,2.1,2.5,3.1c0.3,0.4,0.8,0.8,0.8,1
			c0.1,0.6-0.2,1.4-0.1,2c-0.1,0.2-0.3-0.2-0.5-0.3c-1.1-1.2-2.2-2.7-3.2-4c-3.6-4.5-7.3-9.4-10-14.9
			C148.4,277,148.4,276.9,148.4,276.8z"/>
		<path class="st57" d="M318.6,276.9c-1.8,3.7-4.1,7.1-6.4,10.4c-1.7,2.4-3.6,4.8-5.6,7c-0.6,0.7-1.2,1.5-1.9,2.1
			c0.1-0.6-0.2-1.3-0.1-2c0.1-0.5,1.2-1.6,1.6-2.1c3.9-4.8,7.6-9.8,10.7-15.3C317.3,276.7,318.1,276.9,318.6,276.9z"/>
		<path class="st57" d="M236.5,289c-0.5-0.1-0.7-0.6-1-0.9c-0.3-0.2-1-0.7-1.4-0.9c-1.3-0.7-2.6,1.1-3.6,1.8
			c-0.2-0.1-0.4-0.4-0.6-0.6c-0.2-0.2-0.4-0.5-0.5-0.7c0-0.3,0.4-1.3,0.7-1.8c0.7-1.5,2.1-3.5,3.2-4.3c0.1-0.1,0.1-0.1,0.2-0.1
			c1.1,0.8,2.5,2.8,3.2,4.5c0.3,0.6,0.8,1.4,0.7,1.8C237.5,288.3,236.7,288.5,236.5,289z"/>
		<path class="st57" d="M222.2,284.7c3,1.3,5.3,3.1,7.2,5.5c-0.5,0.9-1,1.8-1.4,2.8c-1.8-0.6-3.9-1.1-6.2-0.9
			C221.2,289.9,221.3,286.6,222.2,284.7z"/>
		<path class="st57" d="M245.2,292.2c-2.3-0.2-4.4,0.3-6.2,0.9c-0.4-1-0.8-2-1.4-2.8c1.8-2.4,4.3-4.2,7.2-5.6
			C245.7,286.5,245.8,289.9,245.2,292.2z"/>
		<path class="st57" d="M148.6,286.8c0.4,0,1.1-0.2,1.7-0.1c0.3,0.1,0.9,1,1.2,1.5c2.5,3.6,5.6,7.3,8.5,10.2c1,0.1,2.1,0.1,3.2,0.1
			c0.5,0,1.2,0,1.6,0.1c0.4,0.1,1,0.7,1.5,1.2c3.2,3,6.7,5.8,10.2,8.4c4.1,3.1,8.6,5.8,13.1,8.3c2.3,1.3,4.6,2.5,7.1,3.6
			c7.4,3.1,15.4,5.7,24.4,7.5c0.1,0.3-0.3,0.4-0.5,0.5c-0.6,0.5-1.3,0.9-2,1.4c-0.9,0.6-1.9,1.5-3,1.7c-0.8,0.1-1.8-0.2-2.7-0.5
			c-2.4-0.7-5-1.4-7.2-2.1c1.4-0.8,3-1.4,4.5-2.1c-1.1-0.5-2.4-0.7-3.5-1.2c-0.7,0.3-1.4,0.7-2.2,1c-0.8,0.4-1.7,1-2.8,0.8
			c-1.5-0.3-3-1.1-4.5-1.8c-1.6-0.7-3.1-1.3-4.5-1.8c1.5-0.6,3.2-1,4.7-1.6c-0.9-0.4-1.9-0.9-2.9-1.4c-0.3-0.1-0.8-0.4-1-0.4
			c-0.5,0-1.6,0.5-2.1,0.7c-0.7,0.2-1.6,0.6-2.2,0.5c-0.8,0-1.8-0.6-2.6-1c-2.3-1.3-4.3-2.7-6.6-4c1.5-0.4,3.3-0.5,4.8-0.9
			c-0.5-0.5-1.5-1-2.3-1.5c-0.3-0.2-0.6-0.4-0.8-0.5c-0.6-0.1-1.6,0.4-2.1,0.5c-0.8,0.2-1.6,0.3-2.3,0.3c-0.8-0.1-1.7-0.8-2.4-1.3
			c-0.8-0.6-1.4-1.2-2-1.6c-1.4-1.1-2.9-2-4.1-3.2c1.5-0.1,3.2-0.1,4.8-0.3c-0.9-0.9-2.4-1.8-3.5-2.8c-1.4,0-3.5,0.7-4.9,0.1
			c-0.8-0.3-1.6-1.3-2.3-2c-2.2-2.2-4.4-4.3-6.4-6.6c-2.9-3.2-5.3-6.4-7.5-9.7C148.6,286.9,148.7,286.8,148.6,286.8z"/>
		<path class="st57" d="M159.7,286.8c0.5,0,1.1-0.3,1.8-0.1c0.2,0.1,0.8,0.8,1.2,1.3c1.1,1.4,2.3,2.8,3.3,3.9
			c1.2,1.3,2.4,2.4,3.7,3.6c0.9,0.9,1.2,1.5,1.4,3c0.2,1.6,0.4,3.2,0.8,4.7c0,0.2-0.6-0.3-0.8-0.5c-1.3-1.1-2.6-2.4-3.9-3.6
			c-0.5-0.5-1.1-0.9-1.6-1.4c-0.6-0.7-0.7-1.5-0.7-2.8c0-0.6,0-1.3-0.1-1.8c-0.1-0.5-0.8-1-1.2-1.6
			C162.2,290.1,160.7,288.1,159.7,286.8z"/>
		<path class="st57" d="M305.4,286.8c0.6,0,1.1,0,1.7,0c0.2,0.1-0.1,0.2-0.1,0.3c-1,1.5-2.2,2.9-3.5,4.5c-0.4,0.5-1.1,1.1-1.3,1.6
			c-0.4,1.1,0.1,2.8-0.3,3.9c-0.1,0.3-0.4,0.7-0.6,0.9c-0.4,0.5-1.1,1-1.6,1.4c-1,0.9-2,1.9-3.1,2.8c-0.5,0.4-1,0.9-1.6,1.2
			c0.3-1.1,0.5-2.1,0.6-3.1c0.2-1.1,0.1-2.5,0.5-3.4c0.2-0.4,0.7-0.9,1.1-1.3c1.2-1.1,2.6-2.3,3.7-3.5
			C302.5,290.4,304.1,288.6,305.4,286.8z"/>
		<path class="st57" d="M316.6,286.8c0.5,0,1.1,0,1.6,0c0.2,0.1-0.1,0.4-0.3,0.6c-2.8,4-5.8,8-9.3,11.5c-1.5,1.5-2.8,2.8-4.3,4.4
			c-0.7,0.7-1.6,1.6-2.4,2c-1.4,0.6-3.5,0-4.8-0.1c-1.2,0.9-2.4,1.8-3.6,2.8c1.6,0.2,3.3,0.2,4.8,0.3c0.3,0,0,0.1,0,0.2
			c-2.2,1.5-3.9,3.1-6.1,4.7c-0.7,0.5-1.6,1.1-2.3,1.2c-1.1,0.1-2.4-0.3-3.3-0.5c-0.3-0.1-0.8-0.2-1.1-0.2c-0.5,0-1.2,0.6-1.7,0.9
			c-0.6,0.4-1.1,0.7-1.6,1c1.6,0.3,3.2,0.6,4.9,0.9c-2.2,1.4-4.2,2.6-6.6,4c-0.8,0.5-1.6,1-2.4,1.1c-1,0.1-2.4-0.5-3.4-0.9
			c-0.4-0.1-0.7-0.3-1-0.3c-0.6,0-1.4,0.6-2,0.9c-0.8,0.3-1.5,0.5-2,0.8c1.4,0.7,3.1,1.1,4.7,1.6c-1.8,0.9-4.3,1.8-6.4,2.7
			c-0.7,0.3-1.5,0.7-2.2,0.9c-2.1,0.6-3.7-1.2-5.3-1.8c-1.2,0.4-2.4,0.7-3.6,1.1c1.4,0.8,3,1.4,4.5,2.1c-2.2,0.7-4.7,1.5-7.2,2.2
			c-1.3,0.3-2.4,0.7-3.5,0.2c-0.8-0.4-1.7-1.1-2.5-1.6c-0.6-0.4-1.2-0.8-1.8-1.3c-0.1-0.1-0.5-0.2-0.4-0.5c9-1.8,16.8-4.4,24.4-7.6
			c1.3-0.5,2.5-1,3.7-1.7c1.1-0.6,2.3-1.2,3.5-1.8c4.5-2.5,9-5.2,13.1-8.3c3.5-2.6,7-5.3,10.2-8.4c0.5-0.4,1.1-1.1,1.4-1.2
			c0.4-0.1,1.1,0,1.6-0.1c0.6,0,1.1,0,1.6-0.1c0.5,0,1.1,0.1,1.6-0.1c0.4-0.1,0.9-0.8,1.4-1.3c1.3-1.4,2.5-2.9,3.7-4.3
			C313.7,290.8,315.1,288.8,316.6,286.8z"/>
		<path class="st57" d="M233.4,298.5c-0.7-1.2-1.6-2.5-2.6-3.5c-0.4-0.4-1.2-0.7-1.3-1.2c-0.1-0.4,0.4-1.3,0.5-1.6
			c0.7-1.4,1.9-2.6,3.2-3.2c0.1,0,0.1-0.2,0.3-0.1c1.3,0.5,2.7,2,3.4,3.3c0.2,0.4,0.6,1.2,0.5,1.6c-0.1,0.5-0.8,0.8-1.2,1.2
			c-0.4,0.4-1.1,1.2-1.5,1.7C234.3,297.2,234,298,233.4,298.5z"/>
		<path class="st57" d="M232.8,303.3c-6.8-0.4-11.8-3.2-13.3-9.1c1-0.2,2-0.4,3.1-0.4C229.1,293.7,232.2,297.4,232.8,303.3z"/>
		<path class="st57" d="M247.5,294.2c-1.5,5.9-6.5,8.7-13.3,9.1c0.6-5.8,3.6-9.4,9.7-9.5C245.2,293.8,246.4,293.9,247.5,294.2z"/>
		<path class="st57" d="M174.4,299.9c1.4,1.1,3.5,2.7,5.2,4c0.6,0.5,1.3,0.9,1.6,1.4c0.5,0.9,0.6,2.2,0.9,3.2c0.3,1.1,0.7,2,1,3
			c-2-1.3-4.3-2.9-6.2-4.3c-0.5-0.4-1.1-0.7-1.4-1.4c-0.3-0.7-0.4-1.8-0.6-2.8C174.7,302,174.6,300.9,174.4,299.9z"/>
		<path class="st57" d="M283.8,311.7c0.4-1.1,0.7-2.1,1-3.1c0.3-1.1,0.4-2.6,1-3.4c0.4-0.5,1.1-0.9,1.6-1.3c1.6-1.2,3.5-2.7,5-3.9
			c0,0.7-0.2,2.1-0.4,3.1c-0.3,1.5-0.4,2.9-1.2,3.7c-0.5,0.5-1.2,0.9-1.8,1.3C287.4,309.2,285.5,310.6,283.8,311.7z"/>
		<path class="st57" d="M234.8,304.7c0.1,1.5,0.1,3.4,0,4.9c-0.9,0-1.8,0-2.6,0c-0.1-1.5-0.2-3.6,0.1-4.9
			C233.1,304.7,234,304.7,234.8,304.7z"/>
		<path class="st57" d="M184.7,307.5C184.7,307.4,184.7,307.4,184.7,307.5c1.8,1.1,3.6,2.1,5.5,3.2c0.8,0.5,1.7,0.9,2.2,1.6
			c0.5,0.8,0.7,2,1.1,3c0.4,1,0.8,1.9,1.4,2.7c-0.4,0-0.7-0.2-1.1-0.4c-1.6-0.9-3.4-1.8-5.1-2.8c-0.8-0.4-1.7-0.8-2.1-1.5
			c-0.4-0.7-0.6-1.8-0.9-2.8C185.3,309.5,185.1,308.4,184.7,307.5z"/>
		<path class="st57" d="M282.1,307.5c-0.1,0.6-0.5,2.1-0.8,3.1c-0.3,1.1-0.6,2.5-1.2,3.1c-0.5,0.5-1.3,0.8-2,1.2
			c-1.9,1-4.1,2.4-6.1,3.2c0.5-0.9,1-1.8,1.4-2.8c0.5-1.2,0.7-2.8,1.5-3.5c0.4-0.4,1.2-0.7,1.8-1.1
			C278.5,309.7,280.5,308.6,282.1,307.5z"/>
		<path class="st57" d="M196.2,314C196.1,314,196.2,314,196.2,314c1.8,0.8,3.9,1.6,5.9,2.4c0.9,0.4,1.8,0.7,2.4,1.4
			c0.6,0.8,1,1.9,1.6,2.8c0.6,1,1.1,1.8,1.6,2.6c-2.2-0.7-4.3-1.5-6.4-2.3c-0.9-0.3-2-0.7-2.5-1.4c-0.5-0.6-0.8-1.7-1.2-2.6
			C197,315.8,196.6,314.8,196.2,314z"/>
		<path class="st57" d="M259.4,323.2c-0.2-0.1,0.1-0.4,0.3-0.6c0.4-0.6,0.9-1.2,1.3-2c0.5-0.9,0.9-2,1.6-2.8c0.8-1,2.9-1.5,4.3-2.1
			c1.3-0.5,2.7-1.1,3.9-1.7c0,0,0.1,0,0.1,0c-0.7,1.5-1.3,2.9-2,4.3c-0.2,0.5-0.4,1-0.7,1.4c-0.4,0.5-1.3,0.7-2,1
			C263.8,321.6,261.6,322.4,259.4,323.2z"/>
		<path class="st57" d="M208.1,318.7C208.1,318.6,208.1,318.6,208.1,318.7c2.3,0.7,4.7,1.3,7,2c0.3,0.1,0.8,0.1,1,0.3
			c0.9,0.5,1.6,1.9,2.2,2.8c0.7,1,1.5,1.8,2.2,2.7c-2.3-0.5-4.6-1.1-6.9-1.7c-0.8-0.2-1.8-0.4-2.3-0.9c-0.3-0.3-0.5-0.8-0.8-1.3
			C209.8,321.4,208.8,319.9,208.1,318.7z"/>
		<path class="st57" d="M246.5,326.5c0-0.3,0.3-0.5,0.5-0.7c0.6-0.6,1.1-1.3,1.7-2c0.6-0.8,1.2-2.3,2.2-2.8c0.5-0.3,1.3-0.3,2-0.5
			c1.9-0.5,4.1-1.2,6-1.8c0,0,0.1,0,0.1,0c-0.5,0.9-1.1,1.7-1.6,2.6c-0.6,0.9-1,2.2-1.8,2.8c-0.5,0.4-1.4,0.6-2.1,0.7
			C251.1,325.4,248.7,326,246.5,326.5z"/>
	</g>
</g>
</svg>
